<svg xmlns="http://www.w3.org/2000/svg" xmlns:xlink="http://www.w3.org/1999/xlink" fill="none" version="1.1" width="36" height="36" viewBox="0 0 36 36"><defs><clipPath id="master_svg0_638_60425"><rect x="6" y="6.5" width="24" height="24" rx="0"/></clipPath></defs><rect x="0" y="0" width="36" height="36" rx="8" fill="#246EFF" fill-opacity="1"/><g clip-path="url(#master_svg0_638_60425)"><path d="M20.625,17.6440001L20.625,21.492001000000002L24,21.492001000000002C24.844,21.508001,25.551001,21.802001,26.120998,22.372002000000002C26.691,22.944001,26.983999,23.652001,27,24.496002L9,24.496002C9.014999986,23.651001,9.30900013,22.943001000000002,9.87899995,22.372002000000002C10.4490001,21.802001,11.1570001,21.508001,12,21.492001000000002L15.375,21.492001000000002L15.375,17.644001C14.5780001,17.0490007,14.0310001,16.2980008,13.7340002,15.3910007C13.437000300000001,14.4830008,13.440999999999999,13.5560007,13.7460003,12.6100006C14.0510001,11.6630006,14.586,10.9080006,15.352000199999999,10.34500062C16.1169996,9.78199995,17,9.5,18,9.5C19,9.5,19.882998999999998,9.78199995,20.648,10.34499991C21.414,10.9079999,21.948999,11.662999899999999,22.253999999999998,12.6099999C22.558998000000003,13.5559998,22.563000000000002,14.4829998,22.266,15.3900003C21.969,16.298000299999998,21.421999,17.0489998,20.625,17.6440001ZM9,27.5L9,25.998001L27,25.998001L27,27.5L9,27.5Z" fill="#FFFFFF" fill-opacity="1"/></g></svg>