<svg xmlns="http://www.w3.org/2000/svg" xmlns:xlink="http://www.w3.org/1999/xlink" fill="none" version="1.1" width="36" height="36" viewBox="0 0 36 36"><defs><clipPath id="master_svg0_634_026934"><rect x="6" y="5.5" width="24" height="24" rx="0"/></clipPath></defs><rect x="0" y="0" width="36" height="36" rx="8" fill="#246EFF" fill-opacity="1"/><g clip-path="url(#master_svg0_634_026934)"><path d="M18.0892578625,16.232089000000002C17.9058529725,16.798809,18.4418118025,17.334774,19.0085339625,17.151375L27.9770730625,14.249034C28.2006850625,14.17667,28.3757780625,14.001066,28.447490062500002,13.777243L31.3075100625,4.8506932C31.488663062500002,4.28528857,30.9549850625,3.75162581,30.3895850625,3.93279532L21.4635348625,6.7929487C21.2397236625,6.864664100000001,21.0641298625,7.0397499,20.9917664625,7.2633524000000005L18.0892578625,16.232089000000002Z" fill="#FFFFFF" fill-opacity="1" transform="matrix(0.7071067690849304,0.7071067690849304,-0.7071067690849304,0.7071067690849304,7.644267600320745,-11.454893845773768)"/><path d="M7.97091034,17.48058507734375C7.72310674,17.85229047734375,7.86431152,18.35739447734375,8.26895058,18.54670527734375L17.4490805,22.84164237734375C17.645622,22.93359467734375,17.872884,22.933343877343752,18.069222,22.84095807734375L27.193516,18.54759497734375C27.597149,18.35766867734375,27.737543,17.85332357734375,27.490099,17.48215867734375L26.859583,16.53638446734375C26.654463,16.22870439734375,26.251673,16.12300519734375,25.921906,16.29032179734375L18.088504999999998,20.26481577734375C17.881522,20.36983397734375,17.636934,20.370163477343752,17.4296694,20.26570317734375L9.537275300000001,16.28797298734375C9.2077281,16.12188276734375,8.8060558,16.22786685734375,8.6013517,16.53492307734375L7.97091034,17.48058507734375Z" fill="#FFFFFF" fill-opacity="1"/><path d="M7.97091034,22.17052648359375C7.72310674,22.54223188359375,7.86431152,23.04733588359375,8.26895058,23.23664668359375L17.4490805,27.53158378359375C17.645622,27.62353608359375,17.872884,27.623285283593752,18.069222,27.53089948359375L27.193516,23.23753638359375C27.597149,23.04761008359375,27.737543,22.54326498359375,27.490099,22.17210008359375L26.859583,21.22632587359375C26.654463,20.91864580359375,26.251673,20.81294660359375,25.921906,20.98026320359375L18.088504999999998,24.95475718359375C17.881522,25.05977538359375,17.636934,25.060104883593752,17.4296694,24.95564458359375L9.537275300000001,20.97791439359375C9.2077281,20.81182417359375,8.8060558,20.91780826359375,8.6013517,21.22486448359375L7.97091034,22.17052648359375Z" fill="#FFFFFF" fill-opacity="1"/></g></svg>