<svg xmlns="http://www.w3.org/2000/svg" xmlns:xlink="http://www.w3.org/1999/xlink" fill="none" version="1.1" width="36" height="36" viewBox="0 0 36 36"><defs><clipPath id="master_svg0_634_027048"><rect x="6" y="6.5" width="24" height="24" rx="0"/></clipPath></defs><rect x="0" y="0" width="36" height="36" rx="8" fill="#246EFF" fill-opacity="1"/><g clip-path="url(#master_svg0_634_027048)"><path d="M25.2955879375,7.916015625Q26.8315889375,7.916015625,27.6235889375,8.816015725Q28.4155879375,9.716015825,28.4155879375,11.012015625L28.4155879375,23.756015625Q28.4155879375,24.356014625,27.9115889375,24.836015625L23.903586937500002,28.676017625Q23.5915869375,28.940015625,23.3755879375,29.012016625Q23.159586937500002,29.084016625,22.8235869375,29.084016625L12.0475864375,29.084016625Q11.4955864375,29.084016625,10.9435863375,28.856016625Q10.3915863375,28.628015625,9.9595861475,28.208015625Q9.5275859875,27.788015625,9.2515859575,27.200015625Q8.9755859375,26.612016625,8.9755859375,25.892017625L8.9755859375,11.012016325Q8.9755859375,9.596016125,9.7555859075,8.756016255Q10.5355858375,7.91601634025574,11.9755859375,7.91601625084877L25.2955879375,7.916015625ZM20.2555869375,22.964015625000002Q20.5675879375,22.964015625000002,20.783587937500002,22.748015625Q20.9995879375,22.532014625000002,20.9995879375,22.220015625000002Q20.9995879375,21.884014625,20.783587937500002,21.680015625Q20.5675879375,21.476015625000002,20.2555869375,21.476015625000002L12.7435867375,21.476015625000002Q12.4315865375,21.476015625000002,12.2155873375,21.680015625Q11.9995880375,21.884014625,11.9995870375,22.220015625000002Q11.9995870375,22.532014625000002,12.2155873375,22.748015625Q12.4315872375,22.964015625000002,12.7435875375,22.964015625000002L20.2555869375,22.964015625000002ZM23.2555869375,18.452015625Q23.5675879375,18.452015625,23.783587937500002,18.236016624999998Q23.9995879375,18.020015625,23.9995879375,17.708015425Q23.9995879375,17.396016125,23.783587937500002,17.180015525Q23.5675879375,16.964015924999998,23.2555869375,16.964015924999998L12.7435867375,16.964015924999998Q12.4315865375,16.964015924999998,12.2155873375,17.180015525Q11.9995880375,17.396015124999998,11.9995870375,17.708015425Q11.9995863375,18.020015625,12.2155873375,18.236016624999998Q12.4315881375,18.452015625,12.7435875375,18.452015625L23.2555869375,18.452015625ZM24.7435879375,13.964015525Q25.0555879375,13.964015525,25.2715869375,13.748015425Q25.4875889375,13.532015325,25.4875889375,13.196015325000001Q25.4875889375,12.884015125000001,25.2715869375,12.668015024999999Q25.0555879375,12.452014925,24.7435879375,12.452014925L12.7435875375,12.452014925Q12.4315872375,12.452014925,12.2155873375,12.668015024999999Q11.9995870375,12.884015125000001,11.9995870375,13.196015325000001Q11.9995870375,13.532015325,12.2155873375,13.748015425Q12.4315872375,13.964015525,12.7435875375,13.964015525L24.7435879375,13.964015525Z" fill="#FFFFFF" fill-opacity="1" style="mix-blend-mode:passthrough"/></g></svg>