<svg xmlns="http://www.w3.org/2000/svg" xmlns:xlink="http://www.w3.org/1999/xlink" fill="none" version="1.1" width="36" height="36" viewBox="0 0 36 36"><defs><clipPath id="master_svg0_634_045038"><rect x="6" y="5.5" width="24" height="24" rx="0"/></clipPath></defs><rect x="0" y="0" width="36" height="36" rx="8" fill="#246EFF" fill-opacity="1"/><g clip-path="url(#master_svg0_634_045038)"><path d="M22.27121596875,13.982641178125C22.17401496875,13.937041778125,22.17881596875,13.797841578125,22.27841796875,13.758241678125C23.22401696875,13.377841478125,23.89361396875,12.425041678125,23.89361396875,11.311442178125C23.89361396875,9.861842178125,22.76081696875,8.687042378125,21.36161596875,8.687042378125C21.028016968750002,8.687042378125,20.70881696875,8.754242578125,20.417216968749997,8.876642478125C20.357215968749998,8.901842378125,20.28881796875,8.875442578125,20.26121796875,8.816642378125C19.85681696875,7.955042598125,18.98321696875,7.358642578125,17.96801796875,7.358642578125C16.95281786875,7.358642578125,16.07681746875,7.956242438125,15.673618268750001,8.819042578125C15.64601706875,8.879042478125,15.57761666875,8.905442578125,15.51641706875,8.879042478125C15.222417368750001,8.755442278125,14.90201856875,8.687042378125,14.56481746875,8.687042378125C13.16681766875,8.687042378125,12.03281786875,9.861842178125,12.03281786875,11.311442178125C12.03281786875,12.434641878125,12.713217768749999,13.392241978125,13.66841696875,13.766641178124999C13.76801726875,13.806241478125,13.77401776875,13.944241478125,13.67681696875,13.991041178125C10.24241776875,15.633842478125,7.87841796875,18.831842578125,7.87841796875,22.887839578125L7.87841796875,24.684240578125C7.87841796875,26.413438578125,9.28001786875,27.815040578125,11.00921726875,27.815040578125L24.92801496875,27.815040578125C26.65721296875,27.815040578125,28.05881496875,26.413440578125,28.05881496875,24.684240578125L28.05881496875,22.760641578125C28.05881496875,18.727441578125,25.69241496875,15.597842178125,22.27121596875,13.982641178125Z" fill="#FFFFFF" fill-opacity="1"/><path d="M20.85575625,21.708961926562502L19.13855695,21.708961926562502L19.13855695,21.4629626265625L20.85575625,21.4629626265625C21.50255685,21.4629626265625,22.02575685,20.9385628265625,22.02575685,20.2929635265625C22.02575685,19.6473632265625,21.50135705,19.122963926562498,20.85575625,19.122963926562498L20.76575705,19.122963926562498L21.64895725,18.2397634265625C22.10618405,17.7829138265625,22.10618405,17.0418137865625,21.64895725,16.5849634965625C21.19210815,16.1277370565625,20.451008350000002,16.1277370565625,19.99415775,16.5849634965625L18.00335745,18.5757632265625L16.01255725,16.5837633265625C15.55570665,16.1265382865625,14.81460863,16.1265382865625,14.35775757,16.5837633265625C13.900532485,17.0406150265625,13.900532485,17.7817136265625,14.35775757,18.2385630265625L15.24095745,19.1217637265625L15.08135735,19.1217637265625C14.43455744,19.1217637265625,13.9113578795,19.6461637265625,13.9113578795,20.2917633265625C13.9113578795,20.937363126562502,14.43575764,21.4617629265625,15.08135735,21.4617629265625L16.79855775,21.4617629265625L16.79855775,21.7077617265625L15.08015645,21.7077617265625C14.43335658,21.7077617265625,13.91015625,22.2321615265625,13.91015625,22.8777613265625C13.91015625,23.5233612265625,14.43455601,24.047761426562502,15.08015575,24.047761426562502L16.79735615,24.047761426562502L16.79735615,24.8805608265625C16.79735615,25.5273609265625,17.32175565,26.0505600265625,17.96735575,26.0505600265625C18.61295505,26.0505600265625,19.13735535,25.5261602265625,19.13735535,24.8805608265625L19.13735535,24.047761426562502L20.85455565,24.047761426562502C21.50135465,24.047761426562502,22.02455525,23.5233612265625,22.02455525,22.8777613265625C22.02455525,22.2321615265625,21.50255635,21.708961926562502,20.85575625,21.708961926562502Z" fill="#165DFF" fill-opacity="1"/></g></svg>