<svg xmlns="http://www.w3.org/2000/svg" xmlns:xlink="http://www.w3.org/1999/xlink" fill="none" version="1.1" width="22" height="22" viewBox="0 0 22 22"><defs><clipPath id="master_svg0_963_076878"><rect x="0" y="0" width="22" height="22" rx="0"/></clipPath><clipPath id="master_svg1_963_076879"><rect x="2" y="4" width="18" height="16" rx="0"/></clipPath></defs><g clip-path="url(#master_svg0_963_076878)"><g clip-path="url(#master_svg1_963_076879)"><path d="M12.851493851171876,12.9741535L9.077798851171874,12.9741535C6.129759051171876,12.9766855,3.740611225371875,15.100371,3.737762451171875,17.720852C3.740610152471875,18.952416,4.8645929511718755,19.949457000000002,6.250112051171875,19.949455999999998L15.679179451171875,19.949455999999998C17.072760451171874,19.959654999999998,18.209386451171873,18.959629,18.212206451171873,17.720851C18.209359451171874,15.093186,15.807602451171874,12.966527,12.851493851171876,12.9741535ZM10.974984651171875,12.4457216C13.598733951171875,12.443182,15.723385451171875,10.5504866,15.720530451171875,8.218266C15.717674451171876,5.8860452,13.588392251171875,3.9974647183,10.964643051171876,4.0000026093207C8.340895151171875,4.0025405386,6.2162415511718745,5.8952352999999995,6.219095951171875,8.2274551C6.224790851171875,10.558620000000001,8.352406051171876,12.4457216,10.974984651171875,12.4457216ZM9.941095351171874,9.0361862L12.174295451171876,9.0361862C12.423165351171875,9.031402100000001,12.607073751171875,9.2409244,12.541325551171875,9.454336600000001C12.334281951171874,10.0801454,11.688153251171876,10.5099006,10.954305651171875,10.5099006C10.220458551171875,10.5099006,9.574330351171875,10.0801454,9.367286651171874,9.454336600000001C9.300084151171875,9.2429638,9.486183651171874,9.0361862,9.941095351171874,9.0361862Z" fill="#1F6BFF" fill-opacity="1"/></g></g></svg>