<svg xmlns="http://www.w3.org/2000/svg" xmlns:xlink="http://www.w3.org/1999/xlink" fill="none" version="1.1" width="18" height="16" viewBox="0 0 18 16"><defs><clipPath id="master_svg0_963_076816"><rect x="0" y="0" width="18" height="16" rx="0"/></clipPath></defs><g clip-path="url(#master_svg0_963_076816)"><path d="M10.851493851171876,8.9741535L7.077798851171875,8.9741535C4.129759051171876,8.9766855,1.740611225371875,11.100371,1.737762451171875,13.720852C1.740610152471875,14.952416,2.864592951171875,15.949457,4.250112051171875,15.949456L13.679179451171875,15.949456C15.072760451171876,15.959655,16.209386451171873,14.959629,16.212206451171873,13.720851C16.209359451171874,11.093186,13.807602451171874,8.966527,10.851493851171876,8.9741535ZM8.974984651171875,8.4457216C11.598733951171875,8.443182,13.723385451171875,6.5504866,13.720530451171875,4.218266C13.717674451171876,1.8860452,11.588392251171875,-0.0025352817,8.964643051171876,0.0000026093207C6.340895151171875,0.0025405386,4.2162415511718745,1.8952353,4.219095951171875,4.2274551C4.224790851171875,6.55862,6.352406051171875,8.4457216,8.974984651171875,8.4457216ZM7.941095351171875,5.0361862L10.174295451171876,5.0361862C10.423165351171875,5.0314021,10.607073751171875,5.2409244,10.541325551171875,5.4543366C10.334281951171874,6.0801454,9.688153251171876,6.5099006,8.954305651171875,6.5099006C8.220458551171875,6.5099006,7.574330351171875,6.0801454,7.367286651171875,5.4543366C7.300084151171875,5.2429638,7.486183651171875,5.0361862,7.941095351171875,5.0361862Z" fill="#86909C" fill-opacity="1"/></g></svg>