<svg xmlns="http://www.w3.org/2000/svg" xmlns:xlink="http://www.w3.org/1999/xlink" fill="none" version="1.1" width="22" height="22" viewBox="0 0 22 22"><defs><clipPath id="master_svg0_963_076863"><rect x="0" y="0" width="22" height="22" rx="0"/></clipPath></defs><g clip-path="url(#master_svg0_963_076863)"><path d="M11,3C6.582,3,3,6.582,3,11C3,15.418,6.582,19,11,19C15.418,19,19,15.418,19,11C19,6.5819995,15.418,3,11,3ZM10.2719998,5.1820002C10.2719998,4.78,10.5979996,4.4540002,11,4.4540002C11.4019995,4.4540002,11.7280006,4.7800002,11.7280006,5.1820002L11.7280006,6.2720001C11.7280006,6.674000299999999,11.4020004,7,11,7C10.5979996,7,10.2719998,6.674000299999999,10.2719998,6.2720001L10.2719998,5.1820002ZM6.2720001,11.7280006L5.1820002,11.7280006C4.78,11.7280006,4.4540002,11.4020004,4.4540002,11C4.4540002,10.5979996,4.7800002,10.2719998,5.1820002,10.2719998L6.2720001,10.2719998C6.674000299999999,10.2719998,7,10.5979996,7,11C7,11.4019995,6.674000299999999,11.7280006,6.2720001,11.7280006ZM8.2319999,8.2320008C7.9520001,8.5120006,7.4979997,8.5160007,7.2119999,8.2400007L6.4840002000000005,7.5120006C6.2080003999999995,7.2260008,6.2120001,6.7740009,6.4920001,6.4920006C6.7720001,6.2120006,7.2260003,6.2080003999999995,7.5120001,6.4840007L8.2399998,7.2120008C8.5179996,7.4980006,8.5139999,7.9520006,8.2319999,8.2320008ZM10.6139998,12.4260006C10.1060004,12.2920008,9.7080002,11.8960009,9.5760002,11.3880005C9.441999899999999,10.880000599999999,9.5939999,10.338000300000001,9.972000099999999,9.974C10.226000299999999,9.7199998,11.7299995,8.5580006,14.485999,6.4880004C14.771999,6.2120006,15.224,6.2160003,15.506,6.4960003C15.785999,6.7760003,15.79,7.2300005,15.514,7.5160003C13.444,10.2720008,12.2819996,11.776001,12.0279999,12.0299997C11.6640005,12.4059992,11.1220007,12.5580006,10.6139998,12.4260006ZM16.817999999999998,11.7280006L15.728001,11.7280006C15.326001,11.7280006,15,11.4020004,15,11C15,10.5979996,15.325999,10.2719998,15.728001,10.2719998L16.817999999999998,10.2719998C17.219999,10.2719998,17.546,10.5979996,17.546,11C17.546,11.4019995,17.220001,11.7280006,16.817999999999998,11.7280006Z" fill="#1F6BFF" fill-opacity="1"/></g></svg>