<svg xmlns="http://www.w3.org/2000/svg" xmlns:xlink="http://www.w3.org/1999/xlink" fill="none" version="1.1" width="22" height="22" viewBox="0 0 22 22"><defs><clipPath id="master_svg0_963_076808"><rect x="0" y="0" width="22" height="22" rx="0"/></clipPath></defs><g clip-path="url(#master_svg0_963_076808)"><path d="M18.323062999999998,17.643409L17.055127,17.643409L17.055127,10.1063142C17.055891000000003,9.2910357,16.89049,8.4841461,16.569015,7.7348669C15.939491,6.2686329,14.766265,5.1031359,13.295551,4.48296851C12.5476189,4.16328509,11.7424622,3.998968119,10.929020900000001,4.0000049200726C8.4645519,4.0021903838,6.2380104,5.4708151,5.2667005,7.7348664C4.9452277,8.485477,4.7798381,9.293600999999999,4.7805884,10.1101036L4.7936468,17.644251L3.61417222,17.644251C3.26551485,17.661538999999998,2.9936250732,17.952499,3.00011381512,18.30138C3.0066025569,18.650261999999998,3.2891238,18.93092,3.63818288,18.935242000000002L18.345809,18.935242000000002C18.710501,18.939754999999998,19.006664,18.641874,18.999886,18.277369C18.993107000000002,17.912864,18.686072,17.626189,18.321799,17.644251L18.323062999999998,17.643409ZM10.5827603,17.014335000000003L10.5827603,12.4617615L8.29458,12.4617615L11.437458,6.605145L11.437458,11.3758311L13.647288,11.3758311L10.5827603,17.014335000000003Z" fill="#86909C" fill-opacity="1"/></g></svg>