<svg xmlns="http://www.w3.org/2000/svg" xmlns:xlink="http://www.w3.org/1999/xlink" fill="none" version="1.1" width="22" height="22" viewBox="0 0 22 22"><defs><clipPath id="master_svg0_963_076870"><rect x="0" y="0" width="22" height="22" rx="0"/></clipPath></defs><g clip-path="url(#master_svg0_963_076870)"><path d="M18.260625626953125,7.7937340625L10.738948826953125,2.1811769605C10.570936226953124,2.0554930945,10.341933226953124,2.0554930945,10.173920626953125,2.1811769605L2.652242856953125,7.7937340625C2.281056556953125,8.071221362500001,2.473867263953125,8.6691264625,2.934756786953125,8.6691264625L3.762707026953125,8.6691264625L3.762707026953125,16.4115250625C3.762707026953125,17.3371770625,4.500955126953125,18.0869140625,5.4124236269531245,18.0869140625L15.501473626953125,18.0869140625C16.412941626953128,18.0869140625,17.151189626953126,17.3371770625,17.151189626953126,16.4115250625L17.151189626953126,8.6691264625L17.979140626953125,8.6691264625C18.440030626953124,8.6691264625,18.632842626953124,8.0701737625,18.260625626953125,7.7937340625ZM13.714625626953126,13.9895370625C12.510332626953126,15.3277560625,11.303977926953126,15.6733040625,10.382196926953124,15.6733040625C10.201758826953125,15.6733040625,10.031632426953125,15.6596930625,9.874909426953124,15.6387500625C8.439655326953126,15.4418920625,7.323002826953125,14.4555040625,7.020899326953125,13.8513190625C6.866238626953125,13.5424180625,6.986873126953125,13.1633610625,7.291039926953125,13.0062920625C7.596238126953125,12.8492250625,7.968455326953125,12.9717390625,8.123115526953125,13.2806390625C8.215912326953125,13.4659790625,8.961379026953125,14.2439880625,10.040912126953124,14.3926790625C11.005996726953125,14.5256620625,11.934991826953125,14.1047210625,12.801092626953125,13.1413720625C13.031023626953125,12.8848280625,13.422831626953124,12.8670250625,13.675444626953125,13.1015800625C13.927056626953124,13.3361030625,13.944573626953124,13.7330980625,13.714625626953126,13.9895370625Z" fill="#1F6BFF" fill-opacity="1"/></g></svg>