<svg xmlns="http://www.w3.org/2000/svg" fill="none" viewBox="0 0 24 24" width="1em" height="1em" class="t-icon t-icon-swear-2"><g id="swear-2"><path id="fill1" fill="transparent" d="M22 12C22 17.5228 17.5228 22 12 22C6.47715 22 2 17.5228 2 12C2 6.47715 6.47715 2 12 2C17.5228 2 22 6.47715 22 12Z"></path><path id="fill2" fill="transparent" d="M14 15.5C14 16.8807 13.1046 18 12 18C10.8954 18 10 16.8807 10 15.5C10 14.1193 10.8954 13 12 13C13.1046 13 14 14.1193 14 15.5Z"></path><path id="stroke1" stroke="currentColor" d="M22 12C22 17.5228 17.5228 22 12 22C6.47715 22 2 17.5228 2 12C2 6.47715 6.47715 2 12 2C17.5228 2 22 6.47715 22 12Z" stroke-linecap="square" stroke-width="2"></path><path id="stroke2" stroke="currentColor" d="M16.8668 9.5L15.1348 10.5M8.86682 10.5L7.13477 9.5M14 15.5C14 16.8807 13.1046 18 12 18C10.8954 18 10 16.8807 10 15.5C10 14.1193 10.8954 13 12 13C13.1046 13 14 14.1193 14 15.5Z" stroke-linecap="square" stroke-width="2"></path></g></svg>