<svg xmlns="http://www.w3.org/2000/svg" xmlns:xlink="http://www.w3.org/1999/xlink" fill="none" version="1.1" width="16" height="16" viewBox="0 0 16 16"><defs><clipPath id="master_svg0_708_90753"><rect x="0" y="0" width="16" height="16" rx="0"/></clipPath></defs><g clip-path="url(#master_svg0_708_90753)"><path d="M6,1.5L3,1.5C2.17157269,1.5,1.5,2.17157269,1.5,3L1.5,6C1.5,6.8284273,2.17157269,7.5,3,7.5L6,7.5C6.8284273,7.5,7.5,6.8284273,7.5,6L7.5,3C7.5,2.17157269,6.8284273,1.5,6,1.5ZM6.5,6C6.5,6.2761426,6.2761426,6.5,6,6.5L3,6.5C2.7238576,6.5,2.5,6.2761426,2.5,6L2.5,3C2.5,2.7238576,2.7238576,2.5,3,2.5L6,2.5C6.2761426,2.5,6.5,2.7238576,6.5,3L6.5,6ZM6,8.5L3,8.5C2.17157269,8.5,1.5,9.171572699999999,1.5,10L1.5,13C1.5,13.828427,2.17157269,14.5,3,14.5L6,14.5C6.8284273,14.5,7.5,13.828427,7.5,13L7.5,10C7.5,9.171572699999999,6.8284273,8.5,6,8.5ZM6.5,13C6.5,13.276142,6.2761426,13.5,6,13.5L3,13.5C2.7238576,13.5,2.5,13.276142,2.5,13L2.5,10C2.5,9.7238579,2.7238576,9.5,3,9.5L6,9.5C6.2761426,9.5,6.5,9.7238579,6.5,10L6.5,13ZM13,8.5L10,8.5C9.171572699999999,8.5,8.5,9.171572699999999,8.5,10L8.5,13C8.5,13.828427,9.171572699999999,14.5,10,14.5L13,14.5C13.828427,14.5,14.5,13.828427,14.5,13L14.5,10C14.5,9.171572699999999,13.828427,8.5,13,8.5ZM13.5,13C13.5,13.276142,13.276142,13.5,13,13.5L10,13.5C9.7238579,13.5,9.5,13.276142,9.5,13L9.5,10C9.5,9.7238579,9.7238579,9.5,10,9.5L13,9.5C13.276142,9.5,13.5,9.7238579,13.5,10L13.5,13ZM8.5,4.5C8.5,6.1568546,9.8431454,7.5,11.5,7.5C13.156855,7.5,14.5,6.1568546,14.5,4.5C14.5,2.8431455999999997,13.156855,1.5,11.5,1.5C9.8431454,1.5,8.5,2.8431455999999997,8.5,4.5Z" fill="#3D3D3D" fill-opacity="1"/></g></svg>