<svg xmlns="http://www.w3.org/2000/svg" xmlns:xlink="http://www.w3.org/1999/xlink" fill="none" version="1.1" width="44" height="44" viewBox="0 0 44 44"><defs><clipPath id="master_svg0_637_91021"><rect x="0" y="0" width="44" height="44" rx="0"/></clipPath></defs><g clip-path="url(#master_svg0_637_91021)"><path d="M22.999392,3C13.6263213,3,6,10.6257138,6,20.000607C6,29.373676,13.6263213,37,22.999392,37C32.374893,37,40,29.373676,40,20.000607C40,10.625106299999999,32.373676,3,22.999392,3Z" fill="#619BFD" fill-opacity="1"/><path d="M29.565845,21.4517336L24.4453173,21.4517336L24.4453173,26.566178C24.445632,27.356853,23.8051805,27.998433,23.0140095,28C22.2233214,27.997491,21.5835848,27.356372999999998,21.583273900000002,26.566178L21.583273900000002,21.452301L16.4621755,21.452301C15.65939885,21.4683056,15,20.8223343,15,20.019904099999998C15,19.2174745,15.65939885,18.5715041,16.4621755,18.5875063L21.583273900000002,18.5875063L21.583273900000002,13.4713492C21.5605145,12.66554958,22.2079515,12,23.0145826,12C23.8212118,12,24.468648,12.66554958,24.4458866,13.4713492L24.4458866,18.586935L29.566412,18.586935C30.358162,18.586933600000002,31,19.2283683,31,20.019617099999998C31,20.810867299999998,30.358164000000002,21.452301,29.566412,21.452301L29.565845,21.4517336Z" fill="#FFFFFF" fill-opacity="1"/></g></svg>