<svg xmlns="http://www.w3.org/2000/svg" xmlns:xlink="http://www.w3.org/1999/xlink" fill="none" version="1.1" width="49.45458984375" height="49.45458984375" viewBox="0 0 49.45458984375 49.45458984375"><path d="M24.726389,0C11.092833,0,0,11.091949,0,24.728157C0,38.361713,11.092833,49.454552,24.726389,49.454552C38.36348,49.454552,49.454552,38.361713,49.454552,24.728157C49.454552,11.091065,38.361713,0,24.726389,0Z" fill="#C9CDD4" fill-opacity="1"/><path d="M45.913978921875,22.01897309375L38.465938921875,22.01897309375L38.465938921875,29.45816609375C38.466395921875,30.60823609375,37.534829921875,31.54144509375,36.384036921875,31.54372409375C35.233945921875,31.54007509375,34.303419121875,30.60754209375,34.302966121875,29.45816609375L34.302966121875,22.019798093749998L26.854095921875,22.019798093749998C25.686420621875,22.043078093749997,24.727294921875,21.10348309375,24.727294921875,19.93631209375C24.727294921875,18.76914109375,25.686420621875,17.82954789375,26.854095921875,17.85282329375L34.302966121875,17.85282329375L34.302966121875,10.41114039375C34.269861221875004,9.23906827375,35.211587921875,8.27099609375,36.384870921875,8.27099609375C37.558148921875,8.27099609375,38.499873921875,9.23906827375,38.466766921875,10.41114039375L38.466766921875,17.851993593750002L45.914804921875,17.851993593750002C47.066440921875,17.85199169375,48.000022921875,18.78498709375,48.000022921875,19.93589509375C48.000022921875,21.08680309375,47.066443921875,22.019798093749998,45.914804921875,22.019798093749998L45.913978921875,22.01897309375Z" fill="#FFFFFF" fill-opacity="1" transform="matrix(0.7071067690849304,0.7071067690849304,-0.7071067690849304,0.7071067690849304,13.090934626423405,-15.062318851632881)"/></svg>