<svg xmlns="http://www.w3.org/2000/svg" xmlns:xlink="http://www.w3.org/1999/xlink" fill="none" version="1.1" width="28" height="28" viewBox="0 0 28 28"><defs><clipPath id="master_svg0_626_89349"><rect x="0" y="0" width="28" height="28" rx="0"/></clipPath></defs><g clip-path="url(#master_svg0_626_89349)"><path d="M14.279863315625,2.8559740196875Q14.335862115625,2.8559740196875,14.419863715625,2.7999740796875Q14.587862015625,2.6879740996875,14.867863015625,2.4079741196875Q15.203863015625,2.0999741596875,15.539863015625,1.9599740806875Q15.875861015625,1.8199740056875,16.435862015625,2.0439740396875Q16.715861015625002,2.1279739996875,16.883862015625,2.2819741096875Q17.051862015624998,2.4359742396875,17.205861015625,2.5759741096875Q17.359861015625,2.7159739696875,17.541862015625,2.8139741396874998Q17.723863015625,2.9119743296875003,18.003862015625,2.9119742296875Q18.283861015625,2.9119739296875,18.479862015625002,2.8279741996875Q18.675862015625,2.7439744496875003,18.857862015625003,2.6739742796875Q19.039860015625003,2.6039740996875,19.221863015625,2.5759742896875Q19.403863015625,2.5479744696875,19.655862015625,2.6319742196875Q19.935862015625,2.7439742096875,20.033861015625,2.9539742296875Q20.131861015625,3.1639743296875,20.089860015625,3.3879742296875Q20.047859015625,3.6119742296875,19.893861015625,3.8359743296874997Q19.739859015625,4.0599744296875,19.515861015625,4.1999743296875Q18.983860015624998,4.5359740296875,18.703861015625,4.8859741296875Q18.423861015625,5.2359743296875,18.143862015625,5.6279742296875Q18.003862015625,5.8239741296875,17.835862015625,6.0759744296875Q17.667863015625002,6.3279743296875,17.527863015625,6.5799746296875Q17.359863015625002,6.8879747296875,17.163862015625,7.1679744296875L11.367862215625,7.1679744296875Q11.171862115625,6.8319745296875,10.975862515625,6.5239744296875Q10.807862315625,6.2439742296875,10.611862215624999,5.9639744296875Q10.415862115625,5.6839747296875,10.275862215625,5.4599747296875005Q9.995862915625,5.039974729687501,9.645862115625,4.7179746296875Q9.295861715625,4.3959746296875,8.959861715625,4.1439745296875Q8.595861415625,3.8919744296875,8.455861615625,3.4579746296875Q8.315861715625001,3.0239747296874997,8.707861915625,2.7159745696875Q8.903862015625,2.5759744596875,9.155861815625,2.6039745796875Q9.407861715625,2.6319745796875003,9.687861415625001,2.7159745696875Q9.967861215625,2.7999745596875,10.233861415625,2.8839744896875Q10.499861215625,2.9679744296874997,10.723861715624999,2.9119745296875Q11.115861915625,2.8279745596875,11.311861515625,2.6179745796875Q11.507861115625001,2.4079745996875,11.983861415625,2.0999745696875Q12.347861815625,1.8759745356875,12.795860315625,1.9459744686875Q13.243860215625,2.0159743996875,13.467860215625,2.2399744396875Q13.579860715625,2.3799745096875,13.705861115625,2.4779745296874998Q13.831860515625,2.5759744596875,13.971860915625,2.6599744596875Q14.111860315625,2.7719744396875,14.279863315625,2.8559740196875ZM17.443864015625,8.455973629687499Q17.779864015625,8.9039735296875,18.283863015625002,9.4359731296875Q18.703863015625,9.9119739296875,19.319862015625,10.5139732296875Q19.935864015625,11.1159744296875,20.747864015625,11.7879743296875Q21.419865015625,12.3759739296875,22.133862015625,13.1739739296875Q22.847864015625,13.9719729296875,23.379862015625,15.0359749296875Q23.911863015625,16.0999759296875,24.121862015625,17.4859729296875Q24.331863015625,18.8719709296875,24.051865015625,20.5799729296875Q23.799860015625,21.9799729296875,23.057861015625,23.2259729296875Q22.315863015625,24.4719729296875,21.083860015625,25.3959729296875Q19.851861015624998,26.3199729296875,18.157863015625,26.8659729296875Q16.463864015625,27.4119739296875,14.307863215625,27.4119739296875Q12.095862815625,27.4119739296875,10.387863115624999,26.7819749296875Q8.679863915624999,26.1519759296875,7.489863415625,25.1439739296875Q6.299862615625,24.1359749296875,5.599863415625,22.8899749296875Q4.899864075625,21.6439739296875,4.675863625625,20.4119739296875Q4.423863525625,19.0399719296875,4.605863690625,17.7799739296875Q4.787863845625,16.5199759296875,5.263863565625,15.4139739296875Q5.739863315625,14.3079719296875,6.453863615625,13.3839739296875Q7.167864115625,12.4599759296875,8.007864015625,11.7319736296875Q8.735863715625001,11.0879736296875,9.323863515625,10.5139732296875Q9.911863815625,9.9399738296875,10.303863515625,9.4639730296875Q10.779863315625,8.9319730296875,11.143863715624999,8.455973629687499L17.443864015625,8.455973629687499ZM14.475864415625,17.0519749296875L13.719863915625,16.2959749296875L13.131863615625,15.7079749296875Q12.851863815625,15.4279749296875,12.739863415625,15.2879739296875Q12.515864415625,15.0919739296875,12.151864015625,14.9659749296875Q11.787863715625,14.8399749296875,11.535863415625,15.1199749296875Q11.311863915625,15.4279749296875,11.423863415625,15.7219749296875Q11.535862915625,16.015974929687502,11.675863315625,16.1839749296875L12.095862815625,16.5759749296875Q12.403862915625,16.9119759296875,12.767863315625,17.3039749296875Q13.187862415625,17.7519739296875,13.691863015625,18.2559739296875L13.663862215625,18.8439749296875L11.759862415625001,18.8439749296875Q11.507862115624999,18.8439749296875,11.325862415625,19.0399759296875Q11.143861815625,19.2359769296875,11.143861815625,19.4599759296875Q11.143861815625,19.6839749296875,11.311862015625,19.8519759296875Q11.479862715625,20.0199779296875,11.759862415625001,20.0199759296875L13.663862215625,20.0199759296875L13.663862215625,20.9999769296875L11.759862415625001,20.9999769296875Q11.507862115624999,20.9999769296875,11.325862415625,21.1539769296875Q11.143861815625,21.3079779296875,11.143861815625,21.5599769296875Q11.115862415625,21.7839779296875,11.297861615625,21.9379769296875Q11.479861215625,22.0919759296875,11.759861515625001,22.0919759296875L13.663861315625,22.0919759296875L13.663861315625,22.6519779296875Q13.691861115625,23.0439759296875,13.915861115625,23.1979769296875Q14.139862015625,23.3519779296875,14.475861515625,23.3519779296875Q14.811862015625,23.3799779296875,15.021861015625,23.1419769296875Q15.231861015625,22.9039779296875,15.231861015625,22.6519779296875L15.231861015625,22.0919779296875L17.191861015625,22.0919779296875Q17.471861015625002,22.0919779296875,17.653860015625,21.9659809296875Q17.835860015625002,21.8399809296875,17.807861015625,21.5599789296875Q17.807861015625,20.9719769296875,17.023861015625002,20.9719769296875L15.231861015625,20.9719769296875L15.259861015625,20.0199799296875L17.079861015625,19.9919799296875Q17.471861015625002,20.0199799296875,17.639860015625,19.8379779296875Q17.807859015625,19.6559789296875,17.807859015625,19.4039779296875Q17.807859015625,19.1799769296875,17.625859015625,18.9979779296875Q17.443860015625,18.8159769296875,17.051860015625,18.8159769296875L15.231859015625,18.8159769296875L15.231859015625,18.2839779296875Q15.707860015625,17.8359789296875,16.099859015625,17.4159779296875Q16.435861015625,17.0799769296875,16.771859015624997,16.7299769296875Q17.107859015625,16.3799769296875,17.275860015625,16.2399769296875Q17.919860015624998,15.6799769296875,17.555860015625,15.2599759296875Q17.359858015625,15.0079769296875,17.051860015625,15.0079769296875Q16.743860015625,15.0079769296875,16.491859015625,15.2319779296875Q16.351860015625,15.3439769296875,16.015860015625,15.6379779296875Q15.679858015625,15.9319779296875,15.343860015625,16.2399769296875Q14.951859015625,16.603976929687498,14.475864415625,17.0519749296875Z" fill="#246EFF" fill-opacity="1" style="mix-blend-mode:passthrough"/></g></svg>