<svg xmlns="http://www.w3.org/2000/svg" xmlns:xlink="http://www.w3.org/1999/xlink" fill="none" version="1.1" width="28" height="28" viewBox="0 0 28 28"><defs><clipPath id="master_svg0_626_89290"><rect x="0" y="0" width="28" height="28" rx="0"/></clipPath></defs><g clip-path="url(#master_svg0_626_89290)"><path d="M3,14C2.999999908518056,20.075132,7.9248672,25,14,25C20.075132,25,25,20.075132,25,14C25,7.9248672,20.075132,3,14,3C7.9248672,3,2.999999908518056,7.9248672,3,14ZM19.694153,11.2281294L12.7874985,17.809404C12.3997126,18.178342999999998,11.7927923,18.18504,11.3969574,17.824754L8.711036700000001,15.384401C8.293238599999999,15.005573,8.2618027,14.359725,8.6408339,13.942111C9.0198655,13.524497,9.665730499999999,13.493376,10.083159,13.872612L12.0661364,15.676015L18.288265000000003,9.7516398C18.691796,9.3365078,19.359451,9.3397703,19.758907,9.7588282C20.158361,10.1778855,20.12966,10.8449326,19.695688,11.2281294L19.694153,11.2281294Z" fill="#246EFF" fill-opacity="1" style="mix-blend-mode:passthrough"/></g></svg>