<svg xmlns="http://www.w3.org/2000/svg" xmlns:xlink="http://www.w3.org/1999/xlink" fill="none" version="1.1" width="28" height="28" viewBox="0 0 28 28"><defs><clipPath id="master_svg0_626_89311"><rect x="0" y="0" width="28" height="28" rx="0"/></clipPath></defs><g clip-path="url(#master_svg0_626_89311)"><path d="M9.5657325,14.722962C9.4666777,14.850232,9.0680861,15.30536,8.987595599999999,15.419521C8.5926528,15.97491,8.4883542,16.849482000000002,8.6409755,17.383945C8.8571877,18.136574,9.5955267,18.221708,10.1438699,18.277384C11.4120588,18.407499,12.7012196,18.320349,13.982659,18.320349C15.232708,18.320349,16.481588000000002,18.301119,17.730434000000002,18.327694C18.468809,18.3412,19.0896,18.134127,19.397215,17.42363C19.724916,16.666534,19.557417,15.951571,18.999825,15.342163C18.802958,15.129365,18.598436,14.919806,18.394303999999998,14.712336C17.926912,14.233908,17.935771000000003,13.755081,18.350020999999998,13.239846C18.735326999999998,12.760625,19.129880999999997,12.27935,19.454359,11.758352C21.204464,8.9488173,20.593699,5.285202,18.049314000000003,3.2037369C15.488773,1.10592127,11.7675686,1.29988635,9.463877700000001,3.647378C6.9609084,6.19701,7.365912,10.4053879,9.593895400000001,13.255404C10.108406500000001,13.911847,9.8741264,14.326822,9.5657325,14.722962ZM24.498913,21.51252C24.494061,20.141119,23.920776,19.489143,22.597855,19.487127C16.861618,19.476072,11.126975999999999,19.479349,5.3907406,19.495338C4.07667345,19.497787,3.520643003,20.095707,3.5037443412,21.414745C3.4960918967,22.031071,3.5025398973,22.647825,3.5025398973,23.333721L24.498913,23.333721C24.498913,22.680092,24.501358,22.094847,24.498913,21.51252ZM4.6781562999999995,26.25L23.277454,26.25L23.277454,24.296236L4.6781557,24.296236L4.6781562999999995,26.25Z" fill="#246EFF" fill-opacity="1" style="mix-blend-mode:passthrough"/></g></svg>