<svg xmlns="http://www.w3.org/2000/svg" xmlns:xlink="http://www.w3.org/1999/xlink" fill="none" version="1.1" width="36" height="36" viewBox="0 0 36 36"><defs><clipPath id="master_svg0_626_88145"><rect x="6" y="5.5" width="24" height="24" rx="0"/></clipPath></defs><rect x="0" y="0" width="36" height="36" rx="8" fill="#246EFF" fill-opacity="1"/><g clip-path="url(#master_svg0_626_88145)"><path d="M21.412204531249998,9.18896474375L21.412204531249998,9.25458984375C21.398142531250002,9.22646484375,21.398142531250002,9.20302734375,21.412204531249998,9.18896474375C21.398142531250002,9.16318334375,21.412204531249998,9.14677714375,21.412204531249998,9.12333964375L21.412204531249998,9.18896474375ZM16.55830003125,18.87099534375C16.55830003125,19.766308343749998,17.28017423125,20.488182343749997,18.17548753125,20.488182343749997C19.07079953125,20.488182343749997,19.79267453125,19.766308343749998,19.79267453125,18.87099534375C19.79267453125,17.97568234375,19.07079953125,17.25380804375,18.17548753125,17.25380804375C17.28251933125,17.25380804375,16.55830003125,17.97802734375,16.55830003125,18.87099534375ZM21.398142531250002,20.49052534375C21.15204953125,20.49052534375,20.90595553125,20.607712343750002,20.762987531249998,20.802245343750002C20.18408153125,21.592087343750002,19.23720753125,22.09599434375,18.17783153125,22.09599434375C17.11845683125,22.09599434375,16.183300931250002,21.58974434375,15.590333031250001,20.802245343750002C15.43564463125,20.59599434375,15.198926431250001,20.49052534375,14.95517583125,20.49052534375L8.49345708125,20.49052534375C8.05283221125,20.49052534375,7.69189453125,20.85380634375,7.69189453125,21.29208934375L7.69189453125,26.13427534375C7.69189453125,26.57490134375,8.05517575125,26.93584034375,8.49345690125,26.93584034375L27.86923553125,26.93584034375C28.30986053125,26.93584034375,28.67079953125,26.57255934375,28.67079953125,26.13427534375L28.67079953125,21.29208934375C28.67079953125,20.851463343749998,28.30751753125,20.49052534375,27.86923553125,20.49052534375L21.398142531250002,20.49052534375ZM13.33564423125,8.37333935375L13.33564423125,18.87099534375L27.05595553125,18.87099534375L27.05595553125,8.37333989375C27.05595553125,7.93271502375,26.69267453125,7.57177734375,26.25439253125,7.57177734375L14.137206531250001,7.57177734375C13.69423863125,7.57177734375,13.33564423125,7.93271485375,13.33564423125,8.37333935375ZM23.44423653125,16.03740124375L16.99892423125,16.03740124375C16.59579943125,16.03740124375,16.22079943125,15.74912074375,16.171581231250002,15.35302594375C16.105956031250003,14.86318254375,16.495018031249998,14.43427564375,16.96142483125,14.43427564375L23.406737531250002,14.43427564375C23.80986253125,14.43427564375,24.18486253125,14.722556543749999,24.23408153125,15.11865094375C24.29970553125,15.61083884375,23.91064253125,16.03740124375,23.44423653125,16.03740124375ZM23.44423653125,12.40224504375L16.99892423125,12.40224504375C16.59579943125,12.40224504375,16.22079943125,12.11396404375,16.171581231250002,11.71786974375C16.105956031250003,11.22568254375,16.495018031249998,10.79911994375,16.96142483125,10.79911994375L23.406737531250002,10.79911994375C23.80986253125,10.79911994375,24.18486253125,11.087401343749999,24.23408153125,11.48349504375C24.29970553125,11.970994443750001,23.91064253125,12.40224504375,23.44423653125,12.40224504375ZM11.716113131250001,18.87099534375L9.29501963125,18.87099534375L9.29501963125,9.99052734375C9.29501963125,9.54990244375,9.65830083125,9.18896504375,10.09658193125,9.18896504375L11.71376943125,9.18896504375L11.71376943125,18.87099534375L11.716113131250001,18.87099534375Z" fill="#FFFFFF" fill-opacity="1" style="mix-blend-mode:passthrough"/></g></svg>