<svg xmlns="http://www.w3.org/2000/svg" xmlns:xlink="http://www.w3.org/1999/xlink" fill="none" version="1.1" width="36" height="36" viewBox="0 0 36 36"><defs><clipPath id="master_svg0_626_88192"><rect x="6" y="5.5" width="24" height="24" rx="0"/></clipPath></defs><rect x="0" y="0" width="36" height="36" rx="8" fill="#246EFF" fill-opacity="1"/><g clip-path="url(#master_svg0_626_88192)"><path d="M10.99951121875,23.5001220703125L8.99951171875,23.5001220703125C7.8995116987500005,23.5001220703125,6.99951171875,24.4001240703125,6.99951171875,25.5001220703125C6.99951171875,26.6001200703125,7.8995116987500005,27.5001220703125,8.99951171875,27.5001220703125L10.999512218749999,27.5001220703125C12.099512118749999,27.5001220703125,12.999512218749999,26.6001200703125,12.999512218749999,25.5001220703125C12.999512218749999,24.4001240703125,12.099512618750001,23.5001220703125,10.99951121875,23.5001220703125ZM18.99951171875,21.500123070312497L16.999512718749997,21.500123070312497C15.89951231875,21.500123070312497,14.99951171875,22.4001240703125,14.99951171875,23.5001220703125L14.99951171875,25.5001220703125C14.99951171875,26.6001220703125,15.89951231875,27.5001220703125,16.999512718749997,27.5001220703125L18.99951171875,27.5001220703125C20.09951171875,27.5001220703125,20.999510718750003,26.6001200703125,20.999510718750003,25.5001220703125L20.999510718750003,23.5001220703125C20.999510718750003,22.4001230703125,20.09951071875,21.500123070312497,18.99951171875,21.500123070312497ZM26.99951171875,17.5001220703125L24.99951171875,17.5001220703125C23.89951171875,17.5001220703125,22.99951171875,18.4001220703125,22.99951171875,19.500121070312503L22.99951171875,25.5001220703125C22.99951171875,26.6001220703125,23.89951371875,27.5001220703125,24.99951171875,27.5001220703125L26.99951171875,27.5001220703125C28.09950971875,27.5001220703125,28.99950971875,26.6001200703125,28.99950971875,25.5001220703125L28.99950971875,19.500121070312503C28.99950971875,18.4001210703125,28.09950971875,17.500121070312503,26.99951171875,17.5001220703125ZM27.99951171875,7.5001220703125L21.39951071875,7.5001220703125C20.499510718750003,7.5001220703125,20.09951071875,8.6001219703125,20.69951171875,9.2001219703125L22.59951071875,11.1001219703125C18.89951271875,15.3001217703125,13.599512118749999,18.5001220703125,7.99951181875,18.5001220703125C7.39951186875,18.5001220703125,6.999511808156967,18.9001220703125,6.99951189756393,19.500123070312497C6.9995119869709,20.1001240703125,7.39951186875,20.500124070312502,7.99951181875,20.500124070312502C14.69951201875,20.500124070312502,20.89951171875,18.6001230703125,25.39951171875,13.9001226703125L27.19951271875,15.7001228703125C27.79951071875,16.3001241703125,28.89951171875,15.9001235703125,28.89951171875,15.0001234703125L28.89951171875,8.5001219503125C28.99950971875,7.9001220503125,28.59950971875,7.50012189149857,27.99951171875,7.5001220703125Z" fill="#FFFFFF" fill-opacity="1" style="mix-blend-mode:passthrough"/></g></svg>