<svg xmlns="http://www.w3.org/2000/svg" xmlns:xlink="http://www.w3.org/1999/xlink" fill="none" version="1.1" width="36" height="36" viewBox="0 0 36 36"><defs><clipPath id="master_svg0_626_88151"><rect x="6" y="6.5" width="24" height="24" rx="0"/></clipPath></defs><rect x="0" y="0" width="36" height="36" rx="8" fill="#246EFF" fill-opacity="1"/><g clip-path="url(#master_svg0_626_88151)"><path d="M25.295832078125,7.916015625Q26.831833078125,7.916015625,27.623833078125,8.816015725Q28.415832078125,9.716015825,28.415832078125,11.012015625L28.415832078125,23.756015625Q28.415832078125,24.356014625,27.911833078125,24.836015625L23.903831078125002,28.676017625Q23.591831078125,28.940015625,23.375832078125,29.012016625Q23.159831078125002,29.084016625,22.823831078125,29.084016625L12.047830578125,29.084016625Q11.495830578125,29.084016625,10.943830478125,28.856016625Q10.391830478125,28.628015625,9.959830288125,28.208015625Q9.527830128125,27.788015625,9.251830098125,27.200015625Q8.975830078125,26.612016625,8.975830078125,25.892017625L8.975830078125,11.012016325Q8.975830078125,9.596016125,9.755830048125,8.756016255Q10.535829978125,7.91601634025574,11.975830078125,7.91601625084877L25.295832078125,7.916015625ZM20.255831078125,22.964015625000002Q20.567832078125,22.964015625000002,20.783832078125002,22.748015625Q20.999832078125,22.532014625000002,20.999832078125,22.220015625000002Q20.999832078125,21.884014625,20.783832078125002,21.680015625Q20.567832078125,21.476015625000002,20.255831078125,21.476015625000002L12.743830878125,21.476015625000002Q12.431830678125,21.476015625000002,12.215831478125,21.680015625Q11.999832178125,21.884014625,11.999831178125,22.220015625000002Q11.999831178125,22.532014625000002,12.215831478125,22.748015625Q12.431831378125,22.964015625000002,12.743831678125,22.964015625000002L20.255831078125,22.964015625000002ZM23.255831078125,18.452015625Q23.567832078125,18.452015625,23.783832078125002,18.236016624999998Q23.999832078125,18.020015625,23.999832078125,17.708015425Q23.999832078125,17.396016125,23.783832078125002,17.180015525Q23.567832078125,16.964015924999998,23.255831078125,16.964015924999998L12.743830878125,16.964015924999998Q12.431830678125,16.964015924999998,12.215831478125,17.180015525Q11.999832178125,17.396015124999998,11.999831178125,17.708015425Q11.999830478125,18.020015625,12.215831478125,18.236016624999998Q12.431832278125,18.452015625,12.743831678125,18.452015625L23.255831078125,18.452015625ZM24.743832078125,13.964015525Q25.055832078125,13.964015525,25.271831078125,13.748015425Q25.487833078125,13.532015325,25.487833078125,13.196015325000001Q25.487833078125,12.884015125000001,25.271831078125,12.668015024999999Q25.055832078125,12.452014925,24.743832078125,12.452014925L12.743831678125,12.452014925Q12.431831378125,12.452014925,12.215831478125,12.668015024999999Q11.999831178125,12.884015125000001,11.999831178125,13.196015325000001Q11.999831178125,13.532015325,12.215831478125,13.748015425Q12.431831378125,13.964015525,12.743831678125,13.964015525L24.743832078125,13.964015525Z" fill="#FFFFFF" fill-opacity="1" style="mix-blend-mode:passthrough"/></g></svg>