<svg xmlns="http://www.w3.org/2000/svg" xmlns:xlink="http://www.w3.org/1999/xlink" fill="none" version="1.1" width="16" height="16" viewBox="0 0 16 16"><defs><clipPath id="master_svg0_964_077519"><rect x="0" y="0" width="16" height="16" rx="0"/></clipPath></defs><g clip-path="url(#master_svg0_964_077519)"><path d="M10.094330823535156,7.99249599375L13.607997123535156,3.18966259375C13.988252123535156,2.66984139375,13.875882123535156,1.94029963375,13.356830123535156,1.55899596375C13.157164123535157,1.41249144075,12.915974123535156,1.33349609375,12.668330123535156,1.33349609375L3.3316641235351563,1.33349609375C2.6883306535351563,1.33349609375,2.1666641235351562,1.85582935375,2.1666641235351562,2.50016269375C2.1666641235351562,2.74816259375,2.245497465535156,2.98966279375,2.391830683535156,3.18966259375L5.905663723535156,7.99249599375L5.905663723535156,14.16683009375C5.905663723535156,14.44299709375,6.129163523535157,14.66683009375,6.404996823535156,14.66683009375C6.680890123535156,14.66655409375,6.904347423535156,14.44272309375,6.9041633235351565,14.16683009375L6.9041633235351565,7.82882929375C6.9041633235351565,7.72266249375,6.870329823535156,7.61916259375,6.807663923535157,7.53332949375L3.1973307235351562,2.5986626937499997C3.1603643935351564,2.54799779375,3.1549353635351562,2.48088129375,3.1832783235351565,2.42493379375C3.211621323535156,2.36898629375,3.2689469235351565,2.3336611937500003,3.3316641235351563,2.33349597375L12.668331123535156,2.33349597375C12.731074123535157,2.33360059375,12.788442123535157,2.36893279375,12.816769123535156,2.42491729375C12.845095123535156,2.48090159375,12.839579123535156,2.54805049375,12.802498123535155,2.5986626937499997L9.192163423535156,7.53332949375C9.129447923535157,7.61909009375,9.095649723535157,7.72258379375,9.095663023535156,7.82882929375L9.095663023535156,12.75716309375C9.095663023535156,13.03333009375,9.319163323535157,13.25716309375,9.594996423535157,13.25716309375C9.870954523535156,13.25697909375,10.094512923535156,13.03312109375,10.094329823535157,12.75716309375L10.094330823535156,7.99249599375Z" fill="#000000" fill-opacity="1"/></g></svg>