<svg xmlns="http://www.w3.org/2000/svg" xmlns:xlink="http://www.w3.org/1999/xlink" fill="none" version="1.1" width="14" height="14" viewBox="0 0 14 14"><defs><clipPath id="master_svg0_968_083991"><rect x="0" y="0" width="14" height="14" rx="0"/></clipPath></defs><g clip-path="url(#master_svg0_968_083991)"><path d="M11.9802222421875,0L2.0507065421875,0C1.0947593421875,0,0.2313232421875,0.8017621,0.2313232421875,1.7577093L0.2313232421875,12.242291C0.2313232421875,13.167401,1.0022483421875,14,2.0507065421875,14L11.9802222421875,14C12.9670052421875,14,13.7996052421875,13.229074,13.7996052421875,12.242291L13.7996052421875,1.7577096C13.7996062421875,0.8942731,12.7819842421875,0,11.9802222421875,0ZM12.9053322421875,12.242291C12.9053322421875,12.735683,12.5044522421875,13.105727,12.0110602421875,13.105727L2.1740546421875,13.105727C1.6806626421875,13.105727,1.2797814421875,12.704846,1.2797814421875,12.242291L1.2797813421875,1.8502203C1.2797813421875,1.3568282,1.6806625421875,0.95594716,2.1740546421875,0.95594716L3.8700897421875,0.95594716L3.8700897421875,7.0925112L5.6894731421875,5.3348022L7.5088563421875,7.0925112L7.5088572421875,0.95594716L12.0418972421875,0.95594716C12.5352902421875,0.95594716,12.9361702421875,1.3568282,12.9361702421875,1.8193833L12.9361702421875,12.242291L12.9053322421875,12.242291Z" fill="#165DFF" fill-opacity="1"/></g></svg>