<svg xmlns="http://www.w3.org/2000/svg" xmlns:xlink="http://www.w3.org/1999/xlink" fill="none" version="1.1" width="16" height="16" viewBox="0 0 16 16"><defs><clipPath id="master_svg0_969_083800"><rect x="0" y="0" width="16" height="16" rx="0"/></clipPath></defs><g clip-path="url(#master_svg0_969_083800)"><path d="M14.998439,6.9875007C14.993752,6.8343759,14.932813,6.6828132,14.815625,6.5671878L12.750001,4.7296879L12.750001,1.625C12.750001,1.27968752,12.470312,1,12.125001,1L3.8750002,1C3.5296874,1,3.25,1.27968752,3.25,1.625L3.25,4.7375004L1.18437506,6.5656257C1.082812548,6.6671882,1.025000097,6.7937503,1.0062500243,6.9250007C1.0015624763,6.9546876,1,6.9843755,1,7.0156255L1,14.375001C1,14.720312,1.27968752,15.000001,1.625,15.000001L14.375001,15.000001C14.720312,15.000001,15.000001,14.720312,15.000001,14.375001L15.000001,7.0156255C15.000001,7.0062504,15.000001,6.9968748,14.998439,6.9875007ZM5.9562507,11.460938L1.75000006,14.071875L1.75000006,7.9250007L5.9562507,11.460938ZM6.5593753,11.968751L7.5578132,12.807813C7.679688,12.929688,7.8390632,12.990626,8.000000499999999,12.990626C8.1609373,12.990626,8.320312999999999,12.929688,8.4421873,12.807813L9.4437504,11.965626L13.1,14.250001L2.8859375,14.250001L6.5593753,11.968751ZM10.046875,11.459376L14.250001,7.9250007L14.250001,14.082814L10.046875,11.459376ZM14.176563,7.0109382L12.750001,8.209375900000001L12.750001,5.6999998L14.176563,7.0109382ZM12.000001,1.75000006L12.000001,8.8390632L8.000000499999999,12.198438L4.000000200000001,8.8390632L4.000000200000001,1.75000006L12.000001,1.75000006ZM3.25,5.7109375L3.25,8.209375900000001L1.8234374500000001,7.0109382L3.25,5.7109375ZM6,5L10,5C10.2078133,5,10.375,4.8328123000000005,10.375,4.625000200000001C10.375,4.4171879,10.2078133,4.250000200000001,10,4.250000200000001L6,4.250000200000001C5.7921882,4.250000200000001,5.625,4.4171879,5.625,4.625000200000001C5.625,4.8328123000000005,5.7921882,5,6,5ZM9.0625,6.7500005L6.9375005,6.7500005C6.7296882,6.7500005,6.5625005,6.9171882,6.5625005,7.1250005C6.5625005,7.3328123,6.7296882,7.5000005,6.9375005,7.5000005L9.0625,7.5000005C9.2703123,7.5000005,9.4375,7.3328123,9.4375,7.1250005C9.4375,6.9171882,9.2703123,6.7500005,9.0625,6.7500005Z" fill="#1F6BFF" fill-opacity="1"/></g></svg>