<svg xmlns="http://www.w3.org/2000/svg" xmlns:xlink="http://www.w3.org/1999/xlink" fill="none" version="1.1" width="16" height="16" viewBox="0 0 16 16"><defs><clipPath id="master_svg0_968_083888"><rect x="0" y="0" width="16" height="16" rx="0"/></clipPath></defs><g clip-path="url(#master_svg0_968_083888)"><path d="M14.4457383,13.7578125L12.9769883,11.015625C13.1348004,10.6609373,13.223863099999999,10.298437100000001,13.223863099999999,9.90625C13.2301135,8.4171877,12.0316758,7.2093749046,10.5426126,7.203125L10.5301127,7.203125C9.0504251,7.203125,7.8457379,8.4031248,7.8410497,9.8874998C7.8394876,10.267187100000001,7.9207368,10.6453123,8.0769868,10.993749600000001L8.0894866,11.0218744L6.594173908,13.7312489C6.556674004,13.798436200000001,6.5644865036,13.8796864,6.609798908,13.9406242C6.655111313,13.9984369,6.7301116,14.0265617,6.80198622,14.0124989L8.1097989,13.717186L8.5535493,14.9656239C8.5769868,15.0343742,8.6394868,15.0843735,8.7160497,15.093748999999999L8.7316747,15.093748999999999C8.8035493,15.095311200000001,8.8707376,15.056248700000001,8.9019876,14.993748700000001L10.2176127,12.560936C10.450425599999999,12.5843735,10.5848002,12.5890608,10.8082376,12.5656233L12.1301122,15.0062485C12.1629243,15.0687485,12.226987399999999,15.1062489,12.297299899999999,15.1062489L12.3160501,15.1062489C12.391049899999999,15.0999985,12.4566751,15.0499992,12.4832377,14.978123700000001L12.9332376,13.732811L14.2379251,14.0359364C14.3097997,14.0531235,14.3848004,14.024998700000001,14.4285502,13.967186C14.473863099999999,13.907811200000001,14.4785504,13.8249989,14.4457383,13.7578125ZM8.7098012,13.546875L8.5082383,12.9812498C8.497300599999999,12.9484377,8.4644885,12.931249600000001,8.4332385,12.9375L7.8363633,13.071874600000001L8.6019883,11.696874600000001C8.8676133,11.9671869,9.0801129,12.0921869,9.4082379,12.2734375L8.7098012,13.546875ZM10.519176,11.704687100000001C9.519176,11.6999998,8.708238099999999,10.8796873,8.7129264,9.8781242C8.7144885,8.8781242,9.5269885,8.06874943,10.5254264,8.06874943L10.5316768,8.06874943C11.534801999999999,8.07343674,12.3426147,8.890624,12.3379264,9.892187100000001C12.3363643,10.8968744,11.522301200000001,11.7078123,10.519176,11.704687100000001ZM12.6613641,13.1296873C12.6176143,13.1203127,12.5723014,13.1453123,12.558239499999999,13.1859369L12.3269897,13.8328123L11.526989499999999,12.360937100000001C11.9051147,12.1515617,12.1551147,12.001562100000001,12.4629273,11.6953125L13.3379273,13.2843752L12.6613641,13.1296873Z" fill="#165DFF" fill-opacity="1"/><path d="M6.1234374,13.714062C6.1234374,13.973436,5.9312501,14.192186,5.6828122,14.231249L5.6828122,14.237499L1.94375002,14.237499C1.42500007,14.237499,1,13.796874,1,13.251562L1,1.98593748C1,1.44375002,1.42343748,1,1.94375002,1L12.429688,1C12.948438,1,13.373438,1.44062507,13.373438,1.98593748L13.373438,7.1656251C13.373438,7.4421878,13.146875,7.6687503,12.870313,7.6687503C12.59375,7.6687503,12.367188,7.4437499,12.367188,7.1671877L12.367188,4.6937499L12.367188,4.6640625L12.345312,2.0359374L2.0531245,2.0640625L2.0234370999999998,13.206249L3.0562496,13.201562C3.0906248,13.192187,3.1296873,13.190624,3.1671872,13.190624L5.6828122,13.190624L5.6828122,13.196875C5.9312496,13.237499,6.1234374,13.453125,6.1234374,13.714062Z" fill="#165DFF" fill-opacity="1"/><path d="M10.6298828125,4.6919920875L3.7876951725,4.6919920875C3.4845702625,4.6919920875,3.2361326215,4.4435546375,3.2361326215,4.1404297375C3.2361326215,3.8373048275,3.4845700225,3.5888671875,3.7876951725,3.5888671875L10.6298828125,3.5888671875C10.933008212499999,3.5888671875,11.1814451125,3.8373045875,11.1814451125,4.1404297375C11.1814451125,4.4435551175,10.9345703125,4.6919920875,10.6298828125,4.6919920875ZM7.1392577125,6.4826166875C7.4423828125,6.4826166875,7.6908197125,6.7310540875000004,7.6908197125,7.0341789875C7.6908197125,7.3373038875,7.4423828125,7.585741287499999,7.1392577125,7.585741287499999L3.7767579525,7.585741287499999C3.4736330525,7.585741287499999,3.2251954079,7.3373038875,3.2251954079,7.0341789875C3.2251954079,6.7310540875000004,3.4736328125,6.4826166875,3.7767579525,6.4826166875L7.1392577125,6.4826166875ZM6.145507612499999,10.4857415875L3.7673828625,10.4857415875C3.4642579525,10.4857415875,3.2158203125,10.237303687499999,3.2158203125,9.934179287500001C3.2158203125,9.6310548875,3.4642577125,9.3826169875,3.7673828625,9.3826169875L6.1439454125,9.3826169875C6.4470703125,9.3826169875,6.6955078125,9.6310548875,6.6955078125,9.934179287500001C6.6986329125,10.2373046875,6.450195112499999,10.4857415875,6.145507612499999,10.4857415875Z" fill="#165DFF" fill-opacity="1"/></g></svg>