<svg xmlns="http://www.w3.org/2000/svg" xmlns:xlink="http://www.w3.org/1999/xlink" fill="none" version="1.1" width="19.239994049072266" height="19.239994049072266" viewBox="0 0 19.239994049072266 19.239994049072266"><defs><clipPath id="master_svg0_964_077440"><rect x="0" y="0" width="19.239994049072266" height="19.239994049072266" rx="0"/></clipPath></defs><g clip-path="url(#master_svg0_964_077440)"><path d="M17.796987130859375,6.01361228125L9.980731930859376,1.32386319125C9.860480330859374,1.20361328125,9.740232430859376,1.20361328125,9.619983630859375,1.20361328125C9.499734830859374,1.20361328125,9.379486130859375,1.20361328125,9.259236330859375,1.32386330125L1.442984180859375,6.01361228125C1.322734150859375,6.13386348125,1.202484130859375,6.37436388125,1.202484130859375,6.61486438125L1.202484130859375,16.23486628125C1.202484130859375,17.196869281250002,2.044233920859375,18.03861228125,3.006234330859375,18.03861228125L16.233737130859375,18.03861228125C17.195740130859377,18.03861228125,18.037483130859375,17.196869281250002,18.037483130859375,16.23486628125L18.037483130859375,6.61486438125C18.037483130859375,6.37436388125,17.917234130859374,6.13386348125,17.796987130859375,6.01361228125ZM9.619983630859375,2.52636318125L16.474233130859375,6.61486438125L9.619983630859375,11.30461328125L2.7657345308593753,6.49461268125L9.619983630859375,2.52636318125ZM16.233737130859375,16.83611728125L3.006234330859375,16.83611728125C2.645483930859375,16.83611728125,2.4049838308593747,16.59561428125,2.4049838308593747,16.23486628125L2.4049838308593747,7.81736278125L9.138985630859375,12.50711228125C9.259236330859375,12.62736228125,9.379485130859376,12.62736228125,9.499735830859375,12.62736228125C9.619983630859375,12.62736228125,9.740232430859376,12.62736228125,9.860480330859374,12.50711228125L16.834988130859376,7.57686518125L16.834988130859376,16.23486628125C16.834988130859376,16.59561428125,16.594485130859375,16.83611728125,16.233737130859375,16.83611728125Z" fill="#FFFFFF" fill-opacity="1"/></g></svg>