<svg xmlns="http://www.w3.org/2000/svg" xmlns:xlink="http://www.w3.org/1999/xlink" fill="none" version="1.1" width="16" height="16" viewBox="0 0 16 16"><path d="M8,16C3.582,16,0,12.418,0,8C0,3.5819998,3.582,0,8,0C12.418,0,16,3.582,16,8C16,12.418,12.418,16,8,16ZM6.2160001,11.141333C6.5414553,11.466872,7.069212,11.466872,7.3946667,11.141333L12.446667,6.0893326C12.772146,5.7638526,12.772146,5.2361455,12.446667,4.910666C12.121186,4.585186,11.59348,4.585186,11.268,4.910666L6.7693329,9.3373327L4.7559996,7.3239994C4.4305935,6.9980907,3.9025357,6.9978876,3.5768781,7.3235455C3.2512207,7.6492028,3.2514243,8.1772604,3.577333,8.5026665L6.2160001,11.141333Z" fill="#00B42A" fill-opacity="1"/></svg>