<svg xmlns="http://www.w3.org/2000/svg" xmlns:xlink="http://www.w3.org/1999/xlink" fill="none" version="1.1" width="16" height="16" viewBox="0 0 16 16"><path d="M8,4.1272693e-7C3.5709341,4.1272693e-7,0,3.5729952,0,8.0046167C0,12.436238,3.6170707,16,8,16C12.429066,16,16,12.427006,16,7.9953842C16,3.5637627,12.392157,5.5030256e-7,8,4.1272693e-7ZM13.213379,10.423543C13.093425,10.672821,12.881199,10.792844,12.641291,10.792844C12.558247,10.792844,12.475201,10.792844,12.392157,10.755915L7.6770477,8.613965C7.4740486,8.5308723,7.3079586,8.2815933,7.3079586,8.0415468L7.3079586,3.6099253C7.3079586,3.2775536,7.5940027,2.9913449,7.9261823,2.9913449C8.2583618,2.9913449,8.5444059,3.2775536,8.5444059,3.6099253L8.5444059,7.672245L12.890427,9.6387768C13.213379,9.7588005,13.333333,10.091172,13.213379,10.423543Z" fill="#C9CDD4" fill-opacity="1"/></svg>