<svg xmlns="http://www.w3.org/2000/svg" xmlns:xlink="http://www.w3.org/1999/xlink" fill="none" version="1.1" width="16" height="16" viewBox="0 0 16 16"><path d="M8,0C3.6571431,0,0,3.6571431,0,8C0,12.342857,3.6571431,16,8,16C12.342857,16,16,12.342857,16,8C16,3.6571434,12.342857,0,8,0ZM11.428572,10.285715C11.771429,10.628572,11.771429,11.085715,11.428572,11.314287C11.085715,11.657144,10.628572,11.657144,10.400001,11.314287L8.1142864,9.028573L5.7142859,11.428572C5.3714285,11.771429,4.9142861,11.771429,4.5714288,11.428572C4.2285714,11.085715,4.2285714,10.514287,4.5714288,10.285715L6.9714289,7.885715L4.6857142,5.6000009C4.3428569,5.3714294,4.3428569,4.9142866,4.6857142,4.5714293C5.0285716,4.2285719,5.4857144,4.2285719,5.7142859,4.5714293L8,6.8571434L10.400001,4.4571433C10.742857,4.1142859,11.200001,4.1142859,11.542857,4.4571433C11.885715,4.8000007,11.885715,5.2571435,11.542857,5.6000004L9.1428576,8L11.428572,10.285715Z" fill="#F53F3F" fill-opacity="1"/></svg>