<svg xmlns="http://www.w3.org/2000/svg" xmlns:xlink="http://www.w3.org/1999/xlink" fill="none" version="1.1" width="15.996718406677246" height="15.996719360351562" viewBox="0 0 15.996718406677246 15.996719360351562"><path d="M15.996718,7.9983125C15.996718,12.415594,12.415688,15.996719,7.998312,15.996719C3.5809689,15.996626,0,12.415594,0,7.9983125C0,3.5809531,3.5809531,0,7.9983125,0C12.415688,0,15.996718,3.5809531,15.996718,7.9983125ZM6.7800002,5.3183126C6.7800002,4.9206252,6.4576879,4.5983129,6.0600004,4.5983129C5.662313,4.5983129,5.3400002,4.9206252,5.3400002,5.3183131L5.3400002,10.678313C5.3400002,11.076001,5.6623125,11.398314,6.0600004,11.398314C6.4576879,11.398314,6.7800007,11.076001,6.7800007,10.678313L6.7800002,5.3183126ZM10.65,5.3183126C10.65,4.9206252,10.327687,4.5983129,9.9299994,4.5983129C9.5323114,4.5983129,9.2099991,4.9206252,9.2099991,5.3183131L9.2099991,10.678391C9.2099991,11.076079,9.5323114,11.398392,9.9299994,11.398392C10.327687,11.398392,10.65,11.076079,10.65,10.678391L10.65,5.3183126Z" fill="#C9CDD4" fill-opacity="1"/></svg>