<svg xmlns="http://www.w3.org/2000/svg" xmlns:xlink="http://www.w3.org/1999/xlink" fill="none" version="1.1" width="28" height="28" viewBox="0 0 28 28"><defs><linearGradient x1="0.5" y1="0" x2="0.5" y2="1" id="master_svg0_255_39492"><stop offset="4.047590121626854%" stop-color="#FC0000" stop-opacity="0"/><stop offset="99.04758930206299%" stop-color="#FF0404" stop-opacity="0.2199999988079071"/></linearGradient><linearGradient x1="0.5" y1="0" x2="0.5" y2="1" id="master_svg1_255_39492"><stop offset="4.047590121626854%" stop-color="#FC0000" stop-opacity="0"/><stop offset="99.04758930206299%" stop-color="#FF0404" stop-opacity="0.2199999988079071"/></linearGradient><linearGradient x1="0.5" y1="0" x2="0.5" y2="1" id="master_svg2_255_39488"><stop offset="0%" stop-color="#D8D8D8" stop-opacity="0"/><stop offset="100%" stop-color="#FF2222" stop-opacity="0.38999998569488525"/></linearGradient><clipPath id="master_svg3_398_99676"><rect x="7" y="7" width="14" height="14" rx="0"/></clipPath></defs><g style="opacity:0.800000011920929;"><ellipse cx="14" cy="20.58823585510254" rx="14" ry="7.411765098571777" fill="url(#master_svg0_255_39492)" fill-opacity="1"/><ellipse cx="14.000000476837158" cy="20.752941131591797" rx="8.469136238098145" ry="4.611764907836914" fill="url(#master_svg1_255_39492)" fill-opacity="1"/><g><path d="M28,0L0,0L0,21.741177L0.20333576,21.741177Q0,21.265091,0,20.781988Q0,20.643326,0.016863609,20.504833Q0.033727217,20.366339,0.067413814,20.228346Q0.1011004,20.090351,0.15152882,19.95319Q0.20195724,19.816029,0.26900601,19.680031Q0.33605477,19.544035,0.41956234,19.409531Q0.50306994,19.275024,0.60283518,19.142334Q0.70260042,19.009644,0.81838292,18.879086Q0.93416548,18.748529,1.0656863,18.620422Q1.1972072,18.492317,1.3441496,18.366968Q1.491092,18.241619,1.653102,18.119331Q1.8151119,17.997042,1.9917991,17.878107Q2.1684861,17.759171,2.3594251,17.643879Q2.5503638,17.528585,2.7550943,17.417213Q2.9598246,17.30584,3.1778536,17.198654Q3.3958821,17.091467,3.6266842,16.988726Q3.8574858,16.885983,4.1005049,16.787935Q4.343524,16.689888,4.5981741,16.596767Q4.8528252,16.503647,5.118494,16.415682Q5.3841629,16.327715,5.6602097,16.245113Q5.9362564,16.162514,6.2220163,16.085478Q6.5077763,16.008442,6.8025613,15.937155Q7.0973458,15.86587,7.4004455,15.800505Q7.7035446,15.73514,8.0142279,15.675855Q8.3249111,15.61657,8.6424313,15.563506Q8.9599514,15.510443,9.2835417,15.463729Q9.607132,15.417015,9.9360142,15.376765Q10.264896,15.336514,10.598277,15.302821Q10.931658,15.269129,11.268735,15.242078Q11.605812,15.215027,11.945773,15.19468Q12.285734,15.174335,12.62776,15.160745Q12.969786,15.147154,13.313053,15.140349Q13.65632,15.133545,14,15.133545Q14.34368,15.133545,14.686948,15.140349Q15.030214,15.147154,15.37224,15.160745Q15.714266,15.174335,16.054226,15.194681Q16.394186,15.215027,16.731262,15.242078Q17.06834,15.269129,17.401722,15.302822Q17.735104,15.336514,18.063986,15.376764Q18.392868,15.417015,18.716457,15.463728Q19.040047,15.510443,19.357567,15.563506Q19.675087,15.61657,19.985771,15.675856Q20.296455,15.73514,20.599554,15.800505Q20.902653,15.86587,21.197437,15.937155Q21.492222,16.008442,21.777981,16.085478Q22.06374,16.162514,22.339787,16.245115Q22.615835,16.327715,22.881506,16.415682Q23.147175,16.503647,23.401825,16.596767Q23.656475,16.689888,23.899494,16.787935Q24.142513,16.885983,24.373316,16.988724Q24.604116,17.091467,24.822145,17.198654Q25.040173,17.30584,25.244902,17.417213Q25.449633,17.528585,25.640572,17.643879Q25.831511,17.759171,26.008198,17.878105Q26.184887,17.99704,26.346897,18.119329Q26.508907,18.241619,26.655849,18.366966Q26.802792,18.492315,26.934311,18.62042Q27.065832,18.748528,27.181616,18.879084Q27.297398,19.00964,27.397165,19.142332Q27.496929,19.275023,27.580437,19.409527Q27.663942,19.544033,27.730991,19.680031Q27.798038,19.816029,27.848469,19.95319Q27.898899,20.090351,27.932587,20.228346Q27.966272,20.366339,27.983135,20.504833Q28,20.643326,28,20.781988Q28,21.265091,27.796665,21.741177L28,21.741177L28,0Z" fill-rule="evenodd" fill="url(#master_svg2_255_39488)" fill-opacity="1"/></g></g><g clip-path="url(#master_svg3_398_99676)"><path d="M13.59583330625,9.50512485L14.57926460625,9.50512485L14.57926460625,7.8686972C14.57926460625,7.61471479,14.35950280625,7.41015625,14.08754110625,7.41015625C13.81558040625,7.41015625,13.59581850625,7.61472851,13.59583330625,7.86733004L13.59583330625,9.50512485ZM10.20468810625,8.47961115C9.98767420625,8.60589825,9.91351870625,8.88321855,10.03847930625,9.10013675L10.86945560625,10.54437875L11.65510990625,10.08996625L10.824133606250001,8.64572455Q10.82276630625,8.64572455,10.82276630625,8.64435735C10.69776420625,8.42880645,10.42033430625,8.35467756,10.20468810625,8.47961115ZM16.52274890625,10.09133335L17.308388906250002,10.54575945L18.13933890625,9.10151695C18.26433990625,8.88459875,18.19018390625,8.60589765,17.97314290625,8.47961065L17.97040790625,8.47961085C17.75476190625,8.35605806,17.477318906249998,8.43018715,17.35372490625,8.64709135L16.52274890625,10.09133335ZM7.36152538625,11.33377835C7.23652343625,11.55065535,7.31070703625,11.82935715,7.52770703625,11.95427705L8.96713660625,12.79036665L9.42038680625,12.00234695L7.98097067625,11.16765165Q7.98097067625,11.166270749999999,7.97960364625,11.166270749999999C7.76257616625,11.04133675,7.48513287625,11.11684705,7.36152538625,11.33377835ZM18.75741690625,12.000980349999999L19.210666906249998,12.78898575L20.65010790625,11.95565745C20.86710790625,11.829370449999999,20.94129390625,11.55066965,20.816278906249998,11.33375125C20.816278906249998,11.33238455,20.81491190625,11.33238455,20.81491190625,11.33101675C20.68990790625,11.115479950000001,20.41247890625,11.04135135,20.19683390625,11.166270749999999L18.75741690625,12.000980349999999ZM7.01025390625,20.38185225C7.01025390625,20.714079249999998,7.27957618625,20.98341425,7.61181646625,20.98341425L20.37505990625,20.98341425C20.70728590625,20.98341425,20.97662290625,20.714079249999998,20.97662290625,20.38185225C20.97662290625,20.04962525,20.70728590625,19.78028925,20.37505990625,19.78028925L18.77528490625,19.78028925L18.77528490625,15.45642285C18.77528490625,12.86999135,16.67794990625,10.77227445,14.088908706249999,10.77227445C11.49986550625,10.77227445,9.40254520625,12.869977949999999,9.40254520625,15.45642285L9.40254520625,19.78028925L7.61181646625,19.78028925C7.27957618625,19.78028925,7.01025390625,20.04962525,7.01025390625,20.38185225Z" fill="#F34336" fill-opacity="1"/><path d="M16.571799300000002,15.7351823C16.5670109,15.7409446,16.562222,15.7524686,16.552644700000002,15.7582302L13.4974833,19.169332C13.4783285,19.1866179,13.4591738,19.2039032,13.4352305,19.2154279C13.3825555,19.2384748,13.3346686,19.25,13.2867821,19.25C13.21016395,19.25,13.14791131,19.2211895,13.10481346,19.1635704C13.03298372,19.0829015,13.04256088,18.979187,13.04734939,18.950376C13.04734939,18.9388528,13.05213803,18.9273281,13.05692655,18.9158039L13.7273382,16.8702958L12.50623152,16.8702958C12.36257206,16.8702958,12.300319474,16.7896276,12.276376223,16.7435322C12.228489719,16.65134,12.252432972,16.5533867,12.295530882,16.4900045C12.300319474,16.4842424,12.300319474,16.4784806,12.305108063,16.4727185L14.9101362,13.217191927C14.9245024,13.199905992,14.9388685,13.188381977,14.9580228,13.176857963C14.9771771,13.165333949,15.0537958,13.125,15.1352022,13.125C15.2118213,13.125,15.2740736,13.153809942,15.3219604,13.211429842C15.3746359,13.27481182,15.3985789,13.36700357,15.3890016,13.48224369L15.3890016,13.49952975L15.0394304,15.3260815L16.394619,15.337605700000001L16.4089851,15.337605700000001C16.5382791,15.3491292,16.5909543,15.4355595,16.6101093,15.4701314C16.6532078,15.585371,16.5909553,15.7006116,16.571799300000002,15.7351823Z" fill="#FFFFFF" fill-opacity="1"/></g></svg>