<svg xmlns="http://www.w3.org/2000/svg" xmlns:xlink="http://www.w3.org/1999/xlink" fill="none" version="1.1" width="28" height="28" viewBox="0 0 28 28"><defs><linearGradient x1="0.5" y1="0" x2="0.5" y2="1" id="master_svg0_224_40213"><stop offset="0%" stop-color="#FCCBA0" stop-opacity="0"/><stop offset="100%" stop-color="#FF7C02" stop-opacity="0.8500000238418579"/></linearGradient><linearGradient x1="0.5" y1="0" x2="0.5" y2="1" id="master_svg1_224_40210"><stop offset="5.47616146504879%" stop-color="#F19204" stop-opacity="0"/><stop offset="100%" stop-color="#F19204" stop-opacity="0.5299999713897705"/></linearGradient><linearGradient x1="0.5" y1="0" x2="0.5" y2="1" id="master_svg2_224_40201"><stop offset="0%" stop-color="#D8D8D8" stop-opacity="0"/><stop offset="100%" stop-color="#FF9C22" stop-opacity="0.5899999737739563"/></linearGradient></defs><ellipse cx="14" cy="20.58823585510254" rx="14" ry="7.411765098571777" fill="url(#master_svg0_224_40213)" fill-opacity="1" style="opacity:0.4000000059604645;"/><ellipse cx="14.000000476837158" cy="20.752941131591797" rx="8.469136238098145" ry="4.611764907836914" fill="url(#master_svg1_224_40210)" fill-opacity="1" style="opacity:0.5;"/><g><path d="M28,0L0,0L0,21.741177L0.17042044,21.741177Q-9.169678e-16,21.168236,0,20.588234Q0,20.406284,0.016863609,20.224556Q0.033727217,20.042828,0.067413814,19.861755Q0.1011004,19.680681,0.15152882,19.500702Q0.20195724,19.320721,0.26900601,19.142269Q0.33605477,18.963816,0.41956234,18.787319Q0.50306994,18.610825,0.60283518,18.436712Q0.70260042,18.262598,0.81838292,18.091286Q0.93416548,17.919971,1.0656863,17.751873Q1.1972072,17.583775,1.3441496,17.419294Q1.491092,17.254816,1.653102,17.094353Q1.8151119,16.933887,1.9917991,16.777824Q2.1684861,16.621763,2.3594251,16.470478Q2.5503638,16.319195,2.7550943,16.173052Q2.9598246,16.026909,3.1778536,15.88626Q3.3958821,15.745611,3.6266842,15.610796Q3.8574858,15.475981,4.1005049,15.347323Q4.343524,15.218666,4.5981741,15.096478Q4.8528252,14.974289,5.118494,14.858862Q5.3841629,14.743435,5.6602097,14.635048Q5.9362564,14.526661,6.2220163,14.425575Q6.5077763,14.32449,6.8025613,14.23095Q7.0973458,14.137409,7.4004455,14.05164Q7.7035446,13.96587,8.0142279,13.888077Q8.3249111,13.810283,8.6424313,13.740654Q8.9599514,13.671025,9.2835417,13.609729Q9.607132,13.548433,9.9360142,13.495617Q10.264896,13.4428,10.598277,13.398589Q10.931658,13.35438,11.268735,13.318883Q11.605812,13.283386,11.945773,13.256689Q12.285734,13.229992,12.62776,13.212158Q12.969786,13.194323,13.313053,13.185396Q13.65632,13.176468,14,13.176468Q14.34368,13.176468,14.686948,13.185395Q15.030214,13.194323,15.37224,13.212158Q15.714266,13.229992,16.054226,13.256688Q16.394186,13.283386,16.731262,13.318882Q17.06834,13.354379,17.401722,13.398589Q17.735104,13.4428,18.063986,13.495617Q18.392868,13.548433,18.716457,13.60973Q19.040047,13.671025,19.357567,13.740654Q19.675087,13.810282,19.985771,13.888076Q20.296455,13.965869,20.599554,14.05164Q20.902653,14.137409,21.197437,14.230949Q21.492222,14.32449,21.777981,14.425574Q22.06374,14.526659,22.339787,14.635046Q22.615835,14.743433,22.881506,14.85886Q23.147175,14.974287,23.401825,15.096476Q23.656475,15.218665,23.899494,15.347322Q24.142513,15.475981,24.373316,15.610795Q24.604116,15.745611,24.822145,15.886259Q25.040173,16.026909,25.244902,16.17305Q25.449633,16.319195,25.640572,16.470478Q25.831511,16.621763,26.008198,16.777826Q26.184887,16.933887,26.346897,17.094353Q26.508907,17.254816,26.655849,17.419296Q26.802792,17.583775,26.934311,17.751873Q27.065832,17.919971,27.181616,18.091286Q27.297398,18.262598,27.397165,18.436712Q27.496929,18.610825,27.580437,18.787319Q27.663942,18.963816,27.730991,19.142269Q27.798038,19.320721,27.848469,19.500702Q27.898899,19.680681,27.932587,19.861755Q27.966272,20.042828,27.983135,20.224556Q28,20.406284,28,20.588234Q28,21.168236,27.82958,21.741177L28,21.741177L28,0Z" fill-rule="evenodd" fill="url(#master_svg2_224_40201)" fill-opacity="1"/></g><path d="M21.752499999999998,19.089491000000002L16.1116533,8.92162997C15.7803631,8.34316635,15.1635523,7.9905401971,14.4998827,8.00019328043C13.8404875,8.0064316797,13.2310371,8.35467142,12.8881111,8.92115837L7.24726495,19.089491000000002C6.917578354,19.685017000000002,6.917578354,20.409678,7.24726495,21.005202C7.57062423,21.601263,8.1842073,21.979950000000002,8.8590357,21.999948L20.140964,21.999948C20.823021,22.005177,21.448464,21.61917,21.752734,21.005202C22.08242,20.409678,22.08242,19.685015999999997,21.752734,19.089491000000002L21.752499999999998,19.089491000000002ZM13.9505153,12.052958499999999C13.957449,11.7507396,14.1993937,11.5073998,14.4998827,11.500427C14.7881742,11.503312600000001,15.0265627,11.7271183,15.0492487,12.0161862L15.0492487,16.8421183C15.0424395,17.1444311,14.800458899999999,17.3879099,14.4998827,17.394888899999998C14.2115917,17.3920002,13.9732027,17.1681967,13.9505153,16.8791285L13.9505153,12.052958499999999ZM14.4998827,20.157784C14.095253,20.157784,13.767237699999999,19.827877,13.767237699999999,19.420918C13.767237699999999,19.013956999999998,14.095253,18.684051,14.4998827,18.684051C14.90451,18.684051,15.2325268,19.013956999999998,15.2325268,19.420918C15.2313681,19.827393999999998,14.9040298,20.156617,14.4998827,20.157784Z" fill="#FFA33D" fill-opacity="1"/></svg>