<svg xmlns="http://www.w3.org/2000/svg" xmlns:xlink="http://www.w3.org/1999/xlink" fill="none" version="1.1" width="16" height="16" viewBox="0 0 16 16"><defs><clipPath id="master_svg0_619_046617"><rect x="0" y="0" width="16" height="16" rx="0"/></clipPath></defs><g clip-path="url(#master_svg0_619_046617)"><path d="M6.97397998828125,12.19535445C6.97397898828125,11.62849425,7.43311978828125,11.16875645,7.99997998828125,11.16802125C8.56736088828125,11.16802125,9.02731318828125,11.62797355,9.02731318828125,12.19535445C9.02731228828125,12.76273535,8.56735988828125,13.22268775,7.99997998828125,13.22268775C7.43312068828125,13.22195275,6.97397998828125,12.76221565,6.97397998828125,12.19535445ZM5.207979888281249,9.418687850000001L5.21264668828125,9.41402145L5.21597978828125,9.41068845C5.39446158828125,9.232287450000001,5.58956908828125,9.07133485,5.79864688828125,8.93002125C6.00867178828125,8.78775975,6.23192788828125,8.66608525,6.46531298828125,8.566687550000001C6.70357798828125,8.466010050000001,6.95123198828125,8.38919065,7.20464608828125,8.33735465C7.46530918828125,8.284156750000001,7.73109628828125,8.257354750000001,7.99798008828125,8.257354750000001C8.26466178828125,8.25727275,8.53067398828125,8.28407475,8.79197978828125,8.33735465C9.04538538828125,8.38922405,9.293036488281249,8.466042550000001,9.53131298828125,8.566687550000001C9.76470568828125,8.66606905,9.98796268828125,8.78774455,10.19797988828125,8.93002125C10.40705678828125,9.07133485,10.60216328828125,9.232287450000001,10.78064628828125,9.41068845L10.78531268828125,9.415354749999999L10.11464598828125,10.08602145C9.55783078828125,9.52712825,8.800903288281251,9.21370125,8.011979088281251,9.21535495C7.21317198828125,9.21338175,6.44754028828125,9.534639349999999,5.88931278828125,10.106021850000001L5.207979888281249,9.418687850000001ZM3.33331298828125,7.54202075L3.33731288828125,7.53802065L3.34197948828125,7.53335385C3.64092088828125,7.23443695,3.96773938828125,6.96476745,4.317979588281251,6.7280206499999995C4.67078948828125,6.48964025,5.04587678828125,6.28602125,5.43797968828125,6.1200208499999995C5.83674908828125,5.95152375,6.25121308828125,5.82289745,6.67531298828125,5.73602105C6.89172748828125,5.69177195,7.11022378828125,5.65839675,7.32997988828125,5.6360211499999995C7.55261608828125,5.61372615,7.77622988828125,5.6026010500000005,7.99997998828125,5.602687850000001C8.225074788281251,5.60268975,8.45002748828125,5.61403755,8.673979788281251,5.63668775C8.89373488828125,5.65906385,9.11223128828125,5.69243905,9.32864668828125,5.73668765C9.75274748828125,5.823563549999999,10.16721058828125,5.95219035,10.56597998828125,6.12068745C10.95808788828125,6.286675949999999,11.33317568828125,6.49029545,11.68597998828125,6.72868725C12.03782198828125,6.96521905,12.36620898828125,7.23489375,12.66664698828125,7.53402095L12.67131298828125,7.53868775L11.99131298828125,8.21868805C10.93645288828125,7.15417675,9.49861048828125,6.557377349999999,7.99997998828125,6.56202075C6.50123118828125,6.55879165,5.0638529882812495,7.15703865,4.00997998828125,8.22268775L3.33331298828125,7.54202075ZM1.33331298828125,5.54202075L1.34064638618125,5.53468755C1.55264639828125,5.322687650000001,1.77797972828125,5.118021049999999,2.0073130082812503,4.92668775C2.23664641828125,4.73535445,2.4833130882812497,4.55268765,2.73264618828125,4.38468795C3.23712918828125,4.04488845,3.77289178828125,3.75401402,4.332646088281249,3.51602125C4.90273448828125,3.27481198,5.49544048828125,3.09101486,6.10197928828125,2.96735454C6.41051678828125,2.90425992,6.72201728828125,2.856644869,7.03531268828125,2.824687958C7.35586548828125,2.792673349,7.67783168828125,2.77687525749,7.99997998828125,2.777354240417C8.32148268828125,2.777384996414,8.64277938828125,2.793627977,8.962646488281251,2.826020956C9.275942788281249,2.85797739,9.58744338828125,2.90559244,9.89597988828125,2.96868753C11.70072798828125,3.33844042,13.35668298828125,4.23133855,14.65731298828125,5.5360207500000005L14.66264598828125,5.54135415L13.98197898828125,6.22202115C12.40056198828125,4.62688205,10.24616048828125,3.7315557,7.99997998828125,3.73602104C6.86779308828125,3.73349571,5.74682048828125,3.96027565,4.70464638828125,4.40268755C4.20091178828125,4.61671115,3.71910408828125,4.87904835,3.26597948828125,5.18602085C2.8161177882812503,5.49109315,2.39643308828125,5.8384490499999995,2.0126461982812502,6.22335435L1.33331298828125,5.54202075Z" fill="#22C660" fill-opacity="1"/></g></svg>