<svg xmlns="http://www.w3.org/2000/svg" xmlns:xlink="http://www.w3.org/1999/xlink" fill="none" version="1.1" width="16" height="16" viewBox="0 0 16 16"><defs><clipPath id="master_svg0_619_046585"><rect x="0" y="0" width="16" height="16" rx="0"/></clipPath></defs><g clip-path="url(#master_svg0_619_046585)"><path d="M14.9075155,6.870302641796875C14.7271235,7.259040841796875,14.4608255,7.601747941796875,14.1287035,7.872583841796875C14.2584535,7.992230941796875,14.2958465,8.182094141796874,14.2211565,8.342006241796875L12.8484375,11.285396541796874C12.7536555,11.488597841796874,12.5121015,11.576499941796875,12.3088905,11.481740941796875L11.1423745,10.937833741796876C10.78057,11.306230541796875,10.2258329,11.406547541796876,9.7579222,11.188194241796875L7.426672,10.101255441796875L6.6373439,11.679552041796875C6.4321561,12.093255841796875,6.0096188,12.354325841796875,5.5478282,12.352723841796875L3.4907188,12.352723841796875L3.4907188,12.758693841796875C3.4899182,13.431020841796874,2.9450469999999997,13.975829841796875,2.2727188,13.976552841796876L1.46068752,13.976552841796876C1.23645985,13.976552841796876,1.05468738079071,13.794807841796874,1.0546875,13.570615841796876L1.0546875,9.511036441796875C1.0546960830688,9.286823741796875,1.2364589,9.105067741796875,1.4606719,9.105067741796875L2.2726876000000003,9.105067741796875C2.7886039,9.105696241796874,3.2483459,9.430797141796875,3.4208908,9.917005041796875L4.794969099999999,9.917005041796875L5.2178907,9.071411641796875L3.1345,8.099990341796875C2.1200156999999997,7.626974541796875,1.67953146,6.416896341796875,2.1526095,5.402537341796875L3.1821408,3.194974941796875C3.6552191,2.180615421796875,4.8654375000000005,1.7402874217968751,5.8798752,2.213178161796875L14.7111255,6.330725241796875C14.9143615,6.425489941796875,15.0022905,6.667071341796875,14.9075155,6.870302641796875ZM2.2727188,9.916974541796876L1.86670315,9.916974541796876L1.86670315,13.164630841796875L2.2726876000000003,13.164630841796875C2.4968089,13.164397841796875,2.6784445,12.982783841796875,2.6787032,12.758660841796875L2.6787032,10.322942741796876C2.678445,10.098833041796874,2.4968282,9.917223441796875,2.2727188,9.916974541796876ZM12.2840785,10.574333141796876L13.3136725,8.366802741796874L13.2758435,8.349193141796874C12.9783765,8.454508341796874,12.6654545,8.509578241796875,12.3499055,8.512146441796876L11.5481565,10.231239341796876L12.2840785,10.574333141796876ZM5.045859800000001,10.728864641796875L3.4907193,10.728864641796875L3.4907193,11.540771441796876L5.5478287,11.540771441796876C5.7017717,11.541324641796875,5.8426385,11.454305641796875,5.9110475,11.316396741796876L6.690485,9.757927441796875L5.9541101,9.414598941796875L5.4090009,10.504474641796875C5.3402295,10.641996341796874,5.1996479,10.728864641796875,5.045859800000001,10.728864641796875ZM3.4032812,4.6419119417968755L2.8885313,5.745677441796875C2.6050804999999997,6.355301341796875,2.8686012,7.079326641796875,3.4775939,7.364130541796875L10.1010942,10.452333441796876C10.3042955,10.547204941796876,10.5459261,10.459272341796876,10.640625,10.255990941796876L11.5106715,8.390365141796874C11.3806985,8.350906841796874,11.2536825,8.302290441796874,11.1305785,8.244881141796874L3.4032812,4.6419119417968755ZM5.5367031,2.949037071796875C4.9270267,2.665562391796875,4.2029376,2.929075721796875,3.9180622,3.538099541796875L3.7464843,3.906037141796875L11.4737335,7.508912041796875C12.3481555,7.916269741796875,13.3884695,7.652639841796875,13.9633585,6.878005941796875L5.5367031,2.949037071796875ZM9.7083435,9.373334441796874L8.2364683,8.687068441796875C8.0332708,8.592291341796875,7.9453793,8.350735141796875,8.0401564,8.147536741796875C8.134933499999999,7.944339241796875,8.3764896,7.856447241796875,8.579687100000001,7.951224841796875L10.0515623,8.637490741796874C10.2549772,8.732142941796875,10.343049,8.973849741796876,10.24821,9.177177941796874C10.1533718,9.380507041796875,9.9115849,9.468358541796874,9.7083435,9.373334441796874ZM5.4641871,7.352709341796875C5.2399936,7.352706441796875,5.05825,7.170948941796875,5.05825,6.946740641796875C5.0582528,6.722529441796875,5.2400103,6.540771941796875,5.4642186,6.540771941796875C5.6884298,6.540774841796875,5.8701873,6.722539441796875,5.8701873,6.946756341796875C5.8701787,7.170960441796875,5.6884089,7.352709341796875,5.4641871,7.352709341796875ZM3.9925623,6.666365641796875C3.7683673,6.666359941796875,3.5866241,6.484603441796875,3.5866241,6.260396941796875C3.5866299,6.036184741796875,3.7683868,5.854427841796875,3.9925928,5.854427841796875C4.2168054999999995,5.854433541796875,4.398562,6.036190541796875,4.398562399999999,6.260396941796875C4.3985453,6.484612441796875,4.2167778,6.666365641796875,3.9925623,6.666365641796875Z" fill="#3D3D3D" fill-opacity="1"/></g></svg>