<svg xmlns="http://www.w3.org/2000/svg" xmlns:xlink="http://www.w3.org/1999/xlink" fill="none" version="1.1" width="16" height="16" viewBox="0 0 16 16"><defs><clipPath id="master_svg0_619_046683"><rect x="0" y="0" width="16" height="16" rx="0"/></clipPath></defs><g clip-path="url(#master_svg0_619_046683)"><path d="M7.99998954453125,0.533203125C6.07572264453125,0.533203125,4.50372314453125,2.105469725,4.50372314453125,4.029469925L4.50372314453125,7.344669825C4.50372314453125,9.268936125,6.07572314453125,10.840937125,7.99972344453125,10.840937125L8.08425714453125,10.839870125C9.977323544531249,10.790804125,11.49625684453125,9.234804125,11.49625684453125,7.344669825L11.49625684453125,4.029469925C11.49625684453125,2.105469925,9.92399024453125,0.53346991539,7.9999904445312495,0.53346991539L7.99998954453125,0.533203125ZM7.99998954453125,1.599869825C9.33492274453125,1.599869825,10.42932224453125,2.694536725,10.42932224453125,4.029469925L10.42932224453125,7.344669825C10.42932224453125,8.656137425,9.37198924453125,9.739336025,8.06345554453125,9.773469925L7.99305534453125,9.774269125C6.66505524453125,9.774269125,5.57038874453125,8.679868725,5.57038874453125,7.344936325L5.57038874453125,4.029202925C5.57038874453125,2.694269625,6.664788744531251,1.599869725,7.99972204453125,1.599869725L7.99998954453125,1.599869825Z" fill="#444444" fill-opacity="1"/><path d="M13.33336181640625,7.11816453933716C13.62791381640625,7.11816453933716,13.86669581640625,7.3569459925,13.86669581640625,7.6514978424999995C13.86669581640625,10.7253646625,11.22136211640625,13.225364662499999,8.00002861640625,13.225364662499999C4.77869491640625,13.225364662499999,2.13336181640625,10.7253646625,2.13336181640625,7.6514978424999995C2.13336181640625,7.3569455125,2.37214326640625,7.1181640625,2.66669511640625,7.1181640625C2.96124720640625,7.1181640625,3.20002861640625,7.3569455125,3.20002861640625,7.6514978424999995C3.20002861640625,10.1224317625,5.3546951164062495,12.158698062500001,8.00002861640625,12.158698062500001C10.64536191640625,12.158698062500001,12.80002881640625,10.1224317625,12.80002881640625,7.6514983225C12.80002881640625,7.3569464725,13.03881081640625,7.11816501617432,13.33336181640625,7.11816453933716Z" fill="#444444" fill-opacity="1"/><path d="M8.0000076246875,12.1591796875C8.2790050546875,12.159231185913,8.5108166046875,12.3743009575,8.5317411046875,12.6525125475L8.5333414046875,12.6925125075L8.5333414046875,14.9333133875C8.5344772046875,15.2209443875,8.3073234546875,15.4576615875,8.0198898346875,15.4683818875C7.7324562046875,15.4791020875,7.4883008006875,15.2599629875,7.4680080413875,14.9730462875L7.4666748046875,14.9330463875L7.4666748046875,12.6925134675C7.46667528152466,12.3979616175,7.7054562546875,12.15918064117432,8.0000076246875,12.1591796875Z" fill="#444444" fill-opacity="1"/><path d="M7.4666910140625,4.53333282L7.4666910140625,7.733333099999999L6.4000244140625,7.733333099999999L6.4000244140625,4.53333282C6.4000244140625,4.23878145,6.6388058640625,4,6.9333577140625,4C7.2279095640625,4,7.4666910140625,4.23878145,7.4666910140625,4.53333282Z" fill="#2449E3" fill-opacity="1"/></g></svg>