<svg xmlns="http://www.w3.org/2000/svg" xmlns:xlink="http://www.w3.org/1999/xlink" fill="none" version="1.1" width="16" height="16" viewBox="0 0 16 16"><defs><clipPath id="master_svg0_619_046576"><rect x="0" y="0" width="16" height="16" rx="0"/></clipPath></defs><g clip-path="url(#master_svg0_619_046576)"><g><path d="M2.42656231,2.9267744L7.7837501,1.589274406C8.262125000000001,1.469899178,8.7468748,1.76089931,8.86625,2.23927438C8.8839378,2.3100243799999998,8.8928747,2.3826492999999997,8.8928747,2.4555243300000003L8.892883300000001,3.9882812L13.639133,5.5682812C14.003916,5.6897287,14.250009,6.0309954,14.250009,6.4154062L14.250009,12.902656C14.250009,13.888906,13.450509,14.688343,12.464321,14.688343L8.892883300000001,14.688343L3.535625,14.687399C2.54943752,14.687399,1.75,13.887898,1.75,12.901711L1.75,3.7930241C1.750012397766,3.3832296,2.02897549,3.0260531,2.42656231,2.9267744ZM6.2153945,4.878906199999999L4.4273319,4.878906199999999Q3.5356758,4.878906199999999,3.5356445,5.7705312L3.5356445,5.7705936Q3.5356758,6.6622186,4.4273319,6.6622186L6.2153945,6.6622186Q7.1070509,6.6622186,7.1070819,5.7705936L7.1070819,5.7705312Q7.1070509,4.878906199999999,6.2153945,4.878906199999999ZM12.018808,7.5546875L11.123621,7.5546875Q10.2319651,7.5546875,10.2319336,8.4463124L10.2319336,8.4463754Q10.2319651,9.3379998,11.123621,9.3379998L12.018808,9.3379998Q12.910464,9.3379998,12.910496,8.4463754L12.910496,8.4463124Q12.910464,7.5546875,12.018808,7.5546875ZM4.4273319,9.3378906L6.2153945,9.3378906Q7.1070504,9.3378906,7.1070819,10.2295151L7.1070819,10.229578Q7.1070504,11.1212025,6.2153945,11.1212025L4.4273319,11.1212025Q3.535676,11.1212025,3.5356445,10.229578L3.5356445,10.2295151Q3.535676,9.3378906,4.4273319,9.3378906Z" fill-rule="evenodd" fill="#089E55" fill-opacity="1"/></g></g></svg>