<svg xmlns="http://www.w3.org/2000/svg" xmlns:xlink="http://www.w3.org/1999/xlink" fill="none" version="1.1" width="16" height="16" viewBox="0 0 16 16"><defs><clipPath id="master_svg0_619_046635"><rect x="0" y="0" width="16" height="16" rx="0"/></clipPath></defs><g clip-path="url(#master_svg0_619_046635)"><path d="M8.000225575,5.695965325C8.554613575000001,5.695965325,9.074442375,5.911960125,9.466114475000001,6.303630825C9.857785175,6.695302525,10.073780075,7.215131325,10.073780075,7.769519325C10.073780075,8.323908825,9.857784275,8.843736625,9.466113575,9.235408825C9.074442375,9.627080925,8.554613575000001,9.843072925,8.000225575,9.843072925C7.445838475,9.843072925,6.926008675,9.627079925,6.534337475,9.235407825C6.142666375,8.843736625,5.926670575,8.323907825,5.926670575,7.769519325C5.926670575,7.215131725,6.142666375,6.695302525,6.534337475,6.303630825C6.926009175,5.911960125,7.445838475,5.695965325,8.000225575,5.695965325ZM8.000225575,4.774385025C6.345701175,4.774385025,5.005091475,6.114995925,5.005091475,7.769519325C5.005091475,9.424043625,6.345701175,10.764652125,8.000225575,10.764652125C9.654748875,10.764652125,10.995361375,9.424042725,10.995361375,7.769518825C10.995361375,6.114995525,9.654749875,4.774384525,8.000225575,4.774385025ZM8.461016675,2.470434825L7.539436375,2.470434825C7.286001675,2.470434825,7.078646175,2.677790925,7.078646175,2.931225025C7.078646175,3.184659025,7.286001675,3.392015025,7.539436375,3.392015025L8.461016675,3.392015025C8.714450375,3.392015025,8.921805875,3.184659025,8.921805875,2.931225025C8.921805875,2.677790925,8.714451275,2.470434825,8.461016675,2.470434825ZM14.220889875,6.847939925C14.220889875,3.433773725,11.470551475,0.661834348,8.065023875,0.62727510728C4.617739675,0.592715845,1.811240941,3.344496225,1.7795615356,6.790341425C1.755082019,9.474442525,3.431205475,11.771191125,5.797072875,12.666854125C6.154185775,12.802212125,6.387461175,13.146363125,6.387461175,13.526515125L6.387461175,14.335776125C6.387461175,14.399135125,6.335622275,14.450973125,6.272263975,14.450973125L5.235486475,14.450973125C4.727177575,14.450973125,4.313906475,14.864245125,4.313906475,15.372555125L11.686546375,15.372555125C11.686546375,14.864244125,11.273275375,14.450973125,10.764967875,14.450973125L9.728188475,14.450973125C9.664830174999999,14.450973125,9.612991775000001,14.399135125,9.612991775000001,14.335776125L9.612991775000001,13.526515125C9.612991775000001,13.143483125,9.850586875,12.800770125,10.207697875,12.665412125C12.553407875,11.774073125,14.220889875,9.506122625,14.220889875,6.847939925ZM8.576212875,14.450973125L7.424237775,14.450973125C7.360879875,14.450973125,7.309040975,14.399135125,7.309040975,14.335776125L7.309040975,13.029726125C7.536555775,13.055646125,7.766951575,13.068605125,8.000225575,13.068605125C8.233499575,13.068605125,8.463894875000001,13.055646125,8.691410975,13.029726125L8.691410975,14.335776125C8.691410975,14.399135125,8.639572175,14.450973125,8.576212875,14.450973125ZM8.000225575,12.147023125C7.284562075,12.147023125,6.590496575,12.007347125,5.938191375,11.730874125C5.307484175,11.464478125,4.740137075,11.081447125,4.253427975,10.594738025C3.7667181750000003,10.108027425,3.383686675,9.540679925,3.117292475,8.909975025C2.840818375,8.257668025000001,2.701141475,7.563605325,2.701141475,6.847939925C2.701141475,6.132275125,2.840818375,5.438210925,3.117292475,4.785904425C3.383686675,4.155198824999999,3.7667181750000003,3.587850825,4.253427975,3.101141425C4.740137075,2.614432725,5.307484175,2.2314005249999997,5.938191375,1.965006125C6.590496575,1.688532125,7.284562075,1.548855125,8.000225575,1.548855125C8.715890375,1.548855125,9.409956475000001,1.688532225,10.062260675,1.965005825C10.692967375,2.231400225,11.260315875,2.614432225,11.747023575,3.101141025C12.233734875,3.587850325,12.616766875,4.155198524999999,12.883159875,4.785903925C13.159632875,5.438210525,13.299310875,6.132275125,13.299310875,6.847939925C13.299310875,7.563605325,13.159632875,8.257668925,12.883159875,8.909975025C12.616766875,9.540680925,12.233734875,10.108027425,11.747023575,10.594738025C11.260315875,11.081447125,10.692966475,11.464478125,10.062260675,11.730874125C9.409956475000001,12.007347125,8.715890375,12.147023125,8.000225575,12.147023125Z" fill="#3D3D3D" fill-opacity="1"/></g></svg>