<svg xmlns="http://www.w3.org/2000/svg" xmlns:xlink="http://www.w3.org/1999/xlink" fill="none" version="1.1" width="16" height="16" viewBox="0 0 16 16"><defs><clipPath id="master_svg0_619_046558"><rect x="0" y="0" width="16" height="16" rx="0"/></clipPath></defs><g clip-path="url(#master_svg0_619_046558)"><path d="M7.99997948828125,13.22267675C7.86257358828125,13.22300575,7.72651818828125,13.19556675,7.59997938828125,13.14201075C7.53883358828125,13.11617775,7.48033758828125,13.08447375,7.42531248828125,13.04734375C7.37079188828125,13.01047375,7.31989668828125,12.96850675,7.27331258828125,12.92201075C7.22678328828125,12.87545575,7.18481448828125,12.82455775,7.14797928828125,12.77000995C7.11084408828125,12.71498875,7.07913968828125,12.65649225,7.05331278828125,12.59534355C6.99979118828125,12.46879385,6.97235488828125,12.33274555,6.97264618828125,12.19534395C6.97235488828125,12.05794145,6.99979118828125,11.92189315,7.05331278828125,11.79534435C7.07913968828125,11.73419475,7.11084408828125,11.67569825,7.14797928828125,11.62067795C7.18481448828125,11.56612965,7.22678328828125,11.51523115,7.27331258828125,11.46867755C7.31989668828125,11.42218115,7.37079188828125,11.38021465,7.42531248828125,11.34334375C7.48033518828125,11.30621245,7.53883168828125,11.27450845,7.59997938828125,11.24867725C7.72651818828125,11.19511985,7.86257358828125,11.16768265,7.99997948828125,11.16801075C8.13738198828125,11.16771885,8.27343038828125,11.19515605,8.399979088281249,11.24867725C8.46113058828125,11.27450085,8.51962708828125,11.30620475,8.57464548828125,11.34334375C8.62919568828125,11.38017555,8.68009428828125,11.42214485,8.72664598828125,11.46867755C8.77316328828125,11.51524255,8.81513068828125,11.56614015,8.85197968828125,11.62067795C8.889121488281251,11.67569445,8.920826388281249,11.73419185,8.94664618828125,11.79534435C9.00016738828125,11.92189315,9.02760458828125,12.05794145,9.02731278828125,12.19534395C9.02760458828125,12.33274555,9.00016738828125,12.46879385,8.94664618828125,12.59534355C8.920826388281249,12.65649605,8.889121488281251,12.71499345,8.85197968828125,12.77000995C8.81513068828125,12.82454775,8.77316328828125,12.87544575,8.72664598828125,12.92201075C8.68009428828125,12.96854275,8.62919568828125,13.01051275,8.57464548828125,13.04734375C8.51962708828125,13.08448275,8.46113058828125,13.11618675,8.399979088281249,13.14201075C8.27342938828125,13.19553175,8.13738108828125,13.22296775,7.99997948828125,13.22267675ZM10.65198038828125,11.94001105L7.92931318828125,9.21734425C7.16121098828125,9.23863025,6.43142418828125,9.55750845,5.89397958828125,10.10667805L5.206645988281251,9.41934395L5.2113127882812496,9.41467765L5.2113127882812496,9.411344549999999C5.38980008828125,9.23295025,5.58490708828125,9.07199855,5.79397968828125,8.930677450000001C6.00396588828125,8.78835205,6.22722818828125,8.66667365,6.46064618828125,8.56734375C6.65840628828125,8.48413375,6.86264328828125,8.41724395,7.07131288828125,8.36734395L5.73797938828125,7.03401045C5.09052658828125,7.31847335,4.50248578828125,7.72241215,4.00464578828125,8.22467705L3.3246458882812497,7.54467725L3.32864578828125,7.54067705L3.33331238828125,7.53601025C3.63225648828125,7.23709635,3.95907448828125,6.96742725,4.30931238828125,6.73067715C4.53684568828125,6.57694575,4.77375028828125,6.43756345,5.018645788281249,6.3133440499999995L3.64797968828125,4.94267705C3.51464608828125,5.02134375,3.38731288828125,5.10467725,3.26131288828125,5.19001055C2.8114684882812497,5.49510525,2.39178598828125,5.84245965,2.00797950828125,6.22734405L1.33331298828125,5.5446772499999994L1.33997964858125,5.53801055C1.55264627828125,5.32601075,1.77731299828125,5.121344049999999,2.00664627828125,4.93001075C2.30642950828125,4.68093395,2.62221778828125,4.45177605,2.95197948828125,4.24401095L2.17464625828125,3.46667719L2.85264618828125,2.788677216L11.33331298828125,11.26201055L10.65531248828125,11.94001105L10.65198038828125,11.94001105ZM11.98531298828125,8.219344150000001C10.93202498828125,7.15607215,9.49662878828125,6.55915115,7.99997948828125,6.56201025L7.98597958828125,6.56201025L7.08931298828125,5.66534375C7.16797968828125,5.65467695,7.24797968828125,5.64467715,7.32531308828125,5.637343850000001C7.54932498828125,5.61469175,7.77427668828125,5.60334395,7.99931288828125,5.60334395C8.22440768828125,5.60334585,8.44936038828125,5.6146936499999995,8.67331268828125,5.637343850000001C8.89306878828125,5.6597161499999995,9.11156508828125,5.6930913499999996,9.32797958828125,5.73734375C9.75207898828125,5.82422445,10.16654208828125,5.95285085,10.56531338828125,6.12134365C10.95741938828125,6.28733635,11.33250708828125,6.49095535,11.68531298828125,6.72934345C12.03737598828125,6.96560335,12.36598998828125,7.23505685,12.66664698828125,7.53401045L12.67131298828125,7.53867725L11.99131298828125,8.218677549999999L11.98531298828125,8.219344150000001ZM13.98531298828125,6.2193441499999995C12.40253398828125,4.62460475,10.24683378828125,3.73043847,7.99997948828125,3.73667717C7.16248888828125,3.73581481,6.32955118828125,3.85984535,5.52864598828125,4.10467725L4.77064608828125,3.34601045C5.20464228828125,3.18727374,5.64987848828125,3.06114578,6.10264638828125,2.96867704C6.41118288828125,2.905581,6.72268338828125,2.857965946,7.03597978828125,2.826010466C7.35624698828125,2.793586731,7.67776678828125,2.77734398841858,7.99931288828125,2.77734375C8.32081558828125,2.777372598648,8.64211228828125,2.793615341,8.96197938828125,2.826010466C9.275275688281251,2.8579669,9.58677668828125,2.90558195,9.89531328828125,2.96867704C11.70006298828125,3.33842993,13.35601698828125,4.23132805,14.65664698828125,5.53601025L14.66197998828125,5.54134365L13.98131298828125,6.22201065L13.98531298828125,6.2193441499999995Z" fill="#F34336" fill-opacity="1"/></g></svg>