<svg xmlns="http://www.w3.org/2000/svg" xmlns:xlink="http://www.w3.org/1999/xlink" fill="none" version="1.1" width="16" height="16" viewBox="0 0 16 16"><defs><clipPath id="master_svg0_619_046669"><rect x="0" y="0" width="16" height="16" rx="0"/></clipPath></defs><g clip-path="url(#master_svg0_619_046669)"><path d="M2.99738896,12.9883133125L2.99738896,9.580568312499999L2,9.580568312499999L2,12.9883133125C2,13.7363553125,2.58181036,14.3181663125,3.3298522,14.3181663125L6.6544824,14.3181663125L6.6544824,13.3207783125L3.3298522,13.3207783125C3.1636206,13.3207783125,2.99738896,13.1545453125,2.99738896,12.9883133125ZM13.303743,1.6845703125L9.895997999999999,1.6845703125L9.895997999999999,2.6819592725L13.303743,2.6819592725C13.469975,2.6819592725,13.636207,2.8481910125,13.636207,3.0144225125L13.636207,6.0065894125L14.633595,6.0065894125L14.633595,3.0144225125C14.633595,2.2663806725,14.051785,1.684570287729574,13.303743,1.6845703125ZM13.636207,12.9883133125C13.636207,13.1545453125,13.469975,13.3207773125,13.303743,13.3207773125L9.895997999999999,13.3207773125L9.895997999999999,14.3181653125L13.303743,14.3181653125C14.051785,14.3181653125,14.633596,13.7363553125,14.633596,12.9883123125L14.633596,9.580568312499999L13.636208,9.580568312499999L13.636207,12.9883133125ZM2.99738896,3.0144225125C2.99738896,2.8481909125,3.1636207,2.6819592725,3.3298522,2.6819592725L6.6544824,2.6819592725L6.6544824,1.6845703125L3.3298522,1.6845703125C2.58181036,1.6845703125,2,2.2663806725,2,3.0144225125L2,6.0065894125L2.99738896,6.0065894125L2.99738896,3.0144225125ZM6.7375979,5.2585478125L4.5765884,10.8273048125L5.4908621,10.8273048125L5.9895554,9.4143371125L8.3999138,9.4143371125L8.8986082,10.8273048125L9.8128824,10.8273048125L7.6518712,5.2585478125L6.7375979,5.2585478125ZM6.2389035,8.6662955125L7.1531768,6.1728210125L8.0674496,8.6662955125L6.2389035,8.6662955125Z" fill="#3D3D3D" fill-opacity="1"/><path d="M11.02398681640625,5.29345703125L11.85514467640625,5.29345703125L11.85514467640625,10.86221313125L11.02398681640625,10.86221313125L11.02398681640625,5.29345703125Z" fill="#2449E3" fill-opacity="1"/></g></svg>